<?xml version="1.0" encoding="UTF-8"?>
<svg id="Ankylosaurus" xmlns="http://www.w3.org/2000/svg" viewBox="0 0 200.224 179.541">
  <ellipse cx="98.385" cy="90.245" rx="67" ry="65" fill="none" stroke="#fff" stroke-miterlimit="10" stroke-width="10"/>
  <path d="M159.665,92.711c-2.45-2.226-5.384-3.918-8.538-4.923l3.1-1.683-7.387-1.383-.018-3.948-13.909-1.144,2.007-1.605c-2.897-1.004-5.982-1.465-9.046-1.351.442-.978-.107-2.276-1.116-2.642-.587,1.067-1.957,1.466-3.17,1.366s-2.358-.585-3.546-.854c-3.294-.744-6.708.207-9.95,1.151,1.015-.479-.04-2.185-1.154-2.045s-1.897,1.124-2.841,1.731c-1.814,1.168-4.149.905-6.306.981s-4.676.86-5.296,2.926c-1.218-.533-2.685-.11-3.728.715s-1.75,1.991-2.435,3.13c.473-1.322-1.218-2.589-2.589-2.286s-2.323,1.516-3.122,2.67c-2.18,3.148-4.894,6.882-8.714,6.614-2.006-.14-3.725-1.41-5.576-2.195-4.736-2.007-10.719-.507-13.948,3.497-1.121,1.39-1.938,3.091-1.978,4.876s.802,3.643,2.352,4.531c2.384,1.367,5.33.147,8.034-.347,3.569-.652,7.271.054,10.671,1.32,2.051.764,4.074,1.764,5.571,3.36s2.396,3.882,1.888,6.01c-1.116,4.674-4.876,7.508-7.5,11.919-.973.264-1.221,1.711-.559,2.472s1.852.859,2.796.504,1.7-1.07,2.428-1.767c3.961-3.793,8.045-7.769,9.964-12.907.505-1.351,1.163-3.029,2.601-3.137,1.636-.123,2.502,1.928,2.548,3.568.114,4.076-1.807,8.159-5.019,10.67-.715.559-1.543,1.12-1.769,1.999-.242.941.356,1.959,1.214,2.415s1.902.434,2.841.184c3.493-.932,5.508-4.537,6.78-7.921s2.352-7.118,5.198-9.346c3.515-2.752,9.251-1.968,11.899,1.627s1.694,9.305-1.977,11.846c-.321.222-.686.461-.771.842-.181.816.957,1.211,1.792,1.245,2.911.118,6.396-.052,7.91-2.541.952-1.565.759-3.543.534-5.361-.318-2.57-.635-5.141-.953-7.711-.079-.636-.117-1.383.365-1.805.739-.647,1.854.068,2.555.757,1.885,1.851,3.823,3.781,4.776,6.245s.641,5.625-1.439,7.254c-.867.679-2.028,1.112-2.476,2.118-.689,1.545.868,3.255,2.505,3.684,3.382.887,6.983-1.637,8.215-4.909s.555-6.98-.791-10.207c-.839-2.01-1.953-4.049-1.754-6.218.316-3.454,3.794-5.717,7.105-6.751,7.364-2.3,15.756-1.03,22.324,3.519-.698-3.442-.313-7.095,1.086-10.317-.981-.448-1.961-.895-1.689-.442Z" fill="#fff" stroke="#fff" stroke-dasharray="0 0 0 0 0 0" stroke-miterlimit="10"/>
</svg>