<?xml version="1.0" encoding="UTF-8"?>
<svg id="Layer_6" xmlns="http://www.w3.org/2000/svg" viewBox="0 0 200.224 179.541">
  <ellipse cx="94.353" cy="90.217" rx="67" ry="65" fill="none" stroke="#fff" stroke-miterlimit="10" stroke-width="10"/>
  <path d="M91.929,36.821c1.089,1.501,1.852,3.162,2.834,4.727.876,1.396,1.691,2.832,2.307,4.365.86,2.138,1.723,4.319,2.388,6.526.341,1.134.779,2.229,1.134,3.357.338,1.077.553,2.183.833,3.275.523,2.037.962,4.127,1.164,6.22.196,2.03.575,3.944.486,6.003-.108,2.486-.108,5.003-.323,7.482-.191,2.191-1.048,4.184-1.516,6.318-.194.882-.476,1.723-.687,2.598-.257,1.067-.414,2.149-.7,3.212-.51,1.897-1.33,3.707-1.822,5.604-.234.902-.554,1.729-.886,2.595-.235.612-.298,1.237-.481,1.862-.174.597-.463,1.096-.71,1.657-.239.541-.371,1.111-.643,1.644-.407.799-.958,1.494-1.043,2.419-.069.745.363,1.992.954,2.477.393.323.958.483,1.438.595.604.14,1.037.327,1.584.62.504.27.964.593,1.523.731.563.139,1.115.233,1.666.433,1.592.579,3.174.983,4.811,1.405.957.247,1.801.256,2.789.256.898,0,1.886.122,2.771-.021.623-.1,1.108-.19.913-.913-.203-.751-.932-1.298-1.413-1.864-.59-.694-1.061-1.516-1.5-2.309-.443-.8-.945-1.59-1.22-2.467-.278-.889-.203-1.813-.383-2.721-.133-.67-.715-1.708-.025-2.152,1.268-.817,2.658.762,3.326,1.663.82,1.106,1.295,2.453,1.95,3.655.537.984,1.164,1.964,1.819,2.873.67.931,1.598,1.59,2.485,2.291,2.53,2.002,5.141,3.934,7.626,5.989,1.86,1.537,4.262,2.403,6.006,4.077.461.443.97.958,1.232,1.542.1.224.276,1.019.106,1.226-.209.254-.511.064-.755-.028-.475-.18-.919-.319-1.402-.466-.576-.175-1.124-.385-1.714-.519-.644-.147-1.221-.577-1.821-.864-.888-.426-1.79-.78-2.683-1.212-.674-.326-1.316-.822-2.029-1.031,1.942,1.409,3.998,2.612,5.964,3.929.598.401,1.164.9,1.721,1.357.349.287,1.335,1.126,1.4,1.655.024.192-.154.637-.313.754-.634.464-2.024-.482-2.59-.664-2.282-.732-3.87-2.894-5.968-3.991-1.959-1.024-3.699-2.37-5.651-3.378-1.241-.641-2.484-1.278-3.848-1.646-1.037-.28-2.08-.497-3.106-.827-.899-.289-1.827-.321-2.755-.462-1.127-.171-2.231-.441-3.358-.596-2.024-.278-3.933-1.213-5.966-1.416-1.232-.123-2.367-.321-3.553-.009-1.442.379-2.999.962-4.503,1.039-1.445.075-2.882-.116-4.321-.111-1.141.004-2.207.318-3.349.313-2.085-.009-4.393-.263-6.428.202-1.477.338-2.986.603-4.278,1.418-.264.167-.561.406-.787.659-.658.737-1.349,1.394-2.051,2.095-.562.561-1.021,1.197-1.495,1.828-.505.671-1.232,1.053-1.851,1.601-1.012.897-2.109,1.649-3.188,2.463-1.144.862-3.297,2.179-4.612.811-.307-.32-.606-.66-.911-.98-.196-.206-.395-.434-.416-.736-.05-.718,1.056-1.502,1.664-1.695.943-.3,1.906-.43,2.804-.873.74-.365,1.7-.595,2.356-1.107.432-.337.788-.779,1.24-1.102.421-.301.923-.45,1.361-.718.719-.44,1.338-1,2.011-1.506.635-.477,1.094-1.081,1.701-1.585.468-.389.811-.544.652-1.175-.342-.076-.808.14-1.133.197-.671.118-1.35.113-2.018.257-.814.175-1.646.291-2.468.442-.873.161-1.748.082-2.62.231-.676.115-1.328.161-2.005.216-1.825.148-3.55.33-5.327-.242-.686-.221-1.716-.562-1.84-1.317-.234-1.417,1.687-1.359,2.62-1.353,1.847.013,3.717-.086,5.573-.101.948-.008,1.886-.106,2.838-.106.834,0,1.679.048,2.505-.052,1.473-.177,2.992.14,4.35-.519,1.345-.652,1.194-2.275,1.193-3.536-.002-1.44.256-2.799-.182-4.186-.383-1.214-.547-2.442-.878-3.654-.255-.934-.473-1.874-.816-2.782-.22-.581-.391-1.174-.606-1.757-.314-.855-.81-1.633-1.095-2.495-.205-.621-.309-1.271-.587-1.868-.317-.679-.744-1.312-1.122-1.957-.736-1.253-1.654-2.482-2.275-3.789-1.578-3.322-3.516-6.407-5.51-9.493-.958-1.482-1.811-3.02-2.797-4.489-.894-1.332-1.91-2.617-2.697-4.014-1.32-2.342-2.873-4.635-4.398-6.845-.616-.892-1.409-1.668-2.136-2.469-.379-.418-.796-1.117-1.312-1.373.94.047,1.756.09,2.659.418.772.28,1.384.637,1.945,1.246.844.916,2.034,1.307,3.07,1.967,1.458.928,2.764,2.132,4.097,3.223,1.357,1.109,2.913,2.14,4.08,3.455.793.894,1.619,1.772,2.44,2.655,1.003,1.079,1.957,2.212,3.01,3.245.6.588,1.336,1.036,1.9,1.654.546.6,1.057,1.215,1.543,1.864.559.744,1.273,1.321,1.801,2.085.464.671.99,1.299,1.497,1.937.986,1.24,1.996,2.483,2.932,3.761.994,1.358,1.763,2.873,2.722,4.254.7,1.009,1.325,2.293,1.429,3.528.033.398.133,2.32.752,1.425.478-.692.703-1.716,1.053-2.49.59-1.303.92-2.625,1.715-3.835.421-.641.845-1.256,1.067-2.001.236-.794.22-1.635.312-2.452.244-2.164.723-4.287,1.012-6.446.184-1.378.387-2.763.493-4.15.194-2.535.536-5.047.751-7.58.463-5.472.557-10.878.391-16.365-.032-1.045-.058-2.089-.295-3.113-.297-1.289-.788-2.511-1.015-3.82-.232-1.339-.308-2.781-.659-4.091-.137-.511-.309-1.003-.405-1.525-.112-.61-.067-1.225-.189-1.833-.191-.946-.23-2.053-.544-2.957-.243-.699-.376-1.337-.524-2.054-.082-.397-.244-.706-.169-1.125,1.609-.21.61-3.915,1.702-2.685.222.25,4.813,8.262,6.207,10.184Z" fill="#fff" stroke="#fff" stroke-dasharray="0 0 0 0 0 0" stroke-miterlimit="10"/>
</svg>