<?xml version="1.0" encoding="UTF-8"?>
<svg id="Layer_2" xmlns="http://www.w3.org/2000/svg" viewBox="0 0 645.348 784.171">
  <path d="M164.686,341.078c-13.471,4.126-20.538,18.505-26.082,31.457-.959,2.241-1.939,4.637-1.542,7.042.932,5.635,8.009,7.287,12.836,10.341,6.937,4.389,9.968,14.043,6.785,21.61-1.025,2.437-2.613,4.678-3.079,7.281-1.644,9.174,10.116,14.23,15.731,21.669,8.754,11.599,1.597,27.911-4.696,41.009-4.724,9.833-8.913,20.159-9.767,31.034s2.039,22.479,9.798,30.147c5.127,5.067,11.899,8.044,17.945,11.967,11.172,7.25,19.877,17.776,26.979,29.043,3.417,5.421,6.555,11.113,11.06,15.672,3.353,3.393,7.487,6.196,9.709,10.417,2.35,4.465,2.198,9.859,4.15,14.512,6.891,16.422,34.012,14.55,42.324,30.301,2.115,4.008,2.785,8.889,5.965,12.119,2.603,2.645,6.399,3.661,9.573,5.585s5.932,5.765,4.43,9.159c-.683,1.542-2.102,2.616-3.084,3.988-4.02,5.612.304,13.859-2.406,20.209-3.206,7.514-14.585,8.924-17.425,16.584-1.04,2.806-.681,5.942-1.419,8.842-1.884,7.407-9.908,11.082-16.604,14.768-9.327,5.134-17.631,12.118-24.287,20.428,8.52,2.293,16.51-4.307,24.194-8.646,16.092-9.086,35.874-8.943,52.778-16.411,12.888-5.694,23.465-15.52,35.607-22.668,9.507-5.596,19.937-9.526,29.303-15.356,10.405-6.477,19.244-15.136,27.991-23.722,4.853-4.764,10.066-10.383,10.833-19.103,4.753-1.05,9.989-2.422,12.637-6.507,2.034-3.138,2.016-7.12,2.743-10.789,1.418-7.148,6.041-13.598,12.355-17.236,3.111-1.792,6.919-3.269,8.162-6.637.992-2.69-.026-5.838,1.091-8.478.702-1.659,2.14-2.864,3.379-4.171,2.919-3.082,4.899-7.043,5.612-11.227.645-3.783.282-7.732,1.385-11.407,1.781-5.934,7.192-10.527,7.895-16.683.403-3.531-.832-7.137-.166-10.628.544-2.852,2.293-5.304,3.997-7.655,3.42-4.718,6.84-9.437,10.261-14.155,1.175-1.621,2.427-3.307,4.241-4.155s4.352-.503,5.291,1.265c.705.321,1.631.017,2.331-1.545,1.264.327,2.511-.601,3.32-1.626s1.457-2.246,2.584-2.905c.732-.429,1.592-.571,2.428-.717,3.934-.683,7.829-1.593,11.659-2.722,2.696-.795,5.412-1.726,7.656-3.419,3.442-2.596,5.82-6.971,10.033-7.889,3.201-.698,7.051.744,9.529-1.4,1.2-1.038,1.729-2.703,2.961-3.702,2.509-2.033,6.574-.411,9.278-2.175,2.524-1.646,2.623-5.332,4.456-7.724.919-1.199,2.24-2.02,3.285-3.111s1.829-2.681,1.289-4.092c-.474-1.238-1.797-1.927-2.544-3.022-1.726-2.527.178-5.964,2.424-8.042s5.074-4.036,5.56-7.057c.214-1.331-.077-2.684-.314-4.012-1.328-7.427-.975-15.149,1.745-22.885-.051-3.523-.094-7.112.935-10.482s3.322-6.544,6.641-7.725c2.3-.818,4.924-.639,7.068-1.806,4.739-2.579,4.472-9.899,8.591-13.384,1.564-1.324,3.614-1.948,5.233-3.205,2.975-2.309,4.009-6.327,4.335-10.079.132-1.52.184-3.071.695-4.509.894-2.514,3.045-4.323,4.889-6.251,5.106-5.342,8.312-12.464,8.926-19.828.345-4.136-.095-8.364.887-12.396.595-2.444,1.694-4.731,2.565-7.091,2.164-5.863,2.913-12.242,1.835-18.45,3.06-.228,5.777-2.819,6.149-5.865.307-2.511-.809-4.948-1.312-7.428-.737-3.634-.152-7.4-.408-11.099-.652-9.401-6.699-18.453-4.546-27.627.483-2.056,1.435-4.091,3.11-5.377,1.212-.931,2.73-1.416,3.894-2.406,3.13-2.662,2.507-7.516,3.03-11.592.574-4.483,2.826-8.579,3.803-12.992.829-3.746.713-7.697-.334-11.388-1.461-5.148-4.719-9.99-4.316-15.326.152-2.015.832-3.982.781-6.001-.131-5.221-4.881-8.992-9.271-11.822s-9.311-6.137-10.483-12.504c-6.383-6.722-13.017-13.896-15.123-22.923-1.025-4.395-1.04-9.335-3.958-12.779-1.758-2.075-4.339-3.274-6.931-4.095-4.677-1.482-9.62-1.934-14.351-3.233s-9.47-3.661-12.043-7.838c-1.41-2.289-2.086-4.992-3.65-7.179-2.87-4.012-8.209-5.616-11.234-9.511-3.686-4.746-3.516-12.314-9.001-14.972-1.104-4.05-5.661-5.92-9.651-7.224-2.676-.874-5.352-1.748-8.028-2.622-3.908-1.276-8.093-2.563-12.059-1.481-2.904.792-5.334,2.778-7.422,4.946-2.598,2.698-4.853,5.788-7.928,7.927-3.002,2.088-6.588,3.132-10.102,4.142-2.959.85-5.917,1.701-8.876,2.551-5.077,1.459-10.829,2.848-15.393.187-.414-.242-.838-.548-.983-1.005-.338-1.063.98-1.885,2.076-2.093,3.227-.613,6.987.088,9.462-2.071.934-.815,1.546-1.95,2.484-2.761,1.468-1.268,3.504-1.57,5.374-2.088,2.874-.796,5.572-2.218,7.854-4.138.602-.507,1.219-1.143,1.219-1.929,0-1.527-2.08-2.001-3.597-1.827-4.747.545-10.045,2.518-13.941-.248-.322-.229-.642-.514-.729-.9-.2-.886.876-1.492,1.765-1.681,4.27-.908,8.775.32,13.048-.576.725-.152,1.592-.562,1.565-1.302-.013-.357-.249-.668-.515-.906-2.388-2.14-7.198-.216-8.784-3.003,4.908-2.275,10.671.087,16.056-.433.631-.061,1.308-.187,1.746-.645,1.029-1.076-.01-2.795-.964-3.938-7.503-8.99-10.154-20.989-11.942-32.561-.26-1.68-.553-3.464-1.682-4.735-1.186-1.334-3.049-1.818-4.817-2.067-2.431-.343-4.906-.369-7.344-.079-4.506.537-9.184,2.129-13.442.56-3.194-1.177-5.499-3.925-8.226-5.963-6.298-4.705-15.341-5.401-23.157-1.334-6.625.982-13.439-.589-19.511-3.414s-11.498-6.855-16.745-11.017c-1.976-1.567-3.962-3.175-6.264-4.203-11.486-5.128-24.967,5.828-37.003,2.172-2.197-.668-4.273-1.814-6.556-2.055-3.951-.417-8.114,1.915-11.774.372-1.988-.838-3.414-2.693-5.408-3.514-3.124-1.285-6.685.273-10.043-.095-1.953-.214-3.767-1.074-5.579-1.834-9.744-4.088-20.575-5.554-30.767-4.121-22.016-2.875-45.895-1.121-63.951,11.801-4.017,2.875-8.028,6.399-12.956,6.747-3.949.279-7.718-1.569-11.637-2.126-6.461-.918-13.045,1.703-19.5.739-4.145-.619-8.091-2.702-12.276-2.468-2.409.134-4.703,1.034-6.925,1.974-13.872,5.866-26.893,13.741-38.53,23.302-2.014,1.655-4.062,3.402-6.553,4.171-2.279.704-4.721.524-7.104.424-11.24-.472-23.809,1.683-31.403,10.578-5.58,16.133-27.287,22.702-31.839,39.154-1.251,4.522-1.33,9.941-5.033,12.822-1.212.943-2.691,1.484-3.947,2.367-5.408,3.803-4.774,11.907-7.522,17.92-1.001,2.19-2.533,4.314-2.404,6.719.163,3.052,3.01,5.731,2.368,8.719-.345,1.604-1.623,2.807-2.605,4.122-4.99,6.68-2.229,16.432,2.655,23.191s11.651,12.181,15.425,19.615c3.512,6.918,4.102,14.947,6.875,22.194,2.084,5.448,5.387,10.41,7.007,16.013,1.415,4.895,1.498,10.124,3.182,14.933s5.726,9.414,10.821,9.352c2.604-.032,5.425-1.238,7.671.081,2.435,1.43,2.564,4.939,1.76,7.646s-2.246,5.373-1.902,8.176c.279,2.267,1.704,4.256,2.072,6.51,1.131,6.932-7.763,12.33-7.179,20.255,6.616,6.141,13.588,11.9,20.868,17.237,1.168.856,2.377,1.718,3.775,2.099,3.618.986,7.196-1.444,10.161-3.739,2.486-1.924,4.972-3.848,7.459-5.772,1.165-.901,2.555-1.856,3.986-1.507,1.999.487,2.54,3.003,3.688,4.71,2.322,3.453,7.28,3.576,10.964,5.511,6.137,3.223,8.23,11.2,13.822,15.297,2.375,1.74,5.323,2.685,8.267,2.648.885-.011,1.814-.1,2.617.273,1.114.517,1.672,1.767,2.598,2.575,1.876,1.636,4.809,1.124,7.025-.01s4.214-2.804,6.645-3.339c2.374-.523,4.984.177,6.779,1.816.205.187.417.446.339.713s-.605.23.457-.043Z" fill="none" stroke="#07a9c0" stroke-miterlimit="10" stroke-width="5"/>
  <path d="M430.304,326.713c-31.873-.311-63.754.15-95.681,1.387-13.029,6.841-24.884,15.674-36.882,24.194-30.667,21.775-62.632,41.723-95.299,60.301-4.689-9.553-9.822-18.888-15.377-27.964.218.309.435.619.653.928-3.5-1.096-7-2.191-10.5-3.287-4.301-1.346-8.631-2.705-12.704-5.218-.71-13.995-.965-28.014-1.545-41.661-5.116,3.216-10.78,5.442-16.405,7.65-6.505,2.553-13.009,5.105-19.242,6.895-12.945-6.02-26.413-12.161-40.69-12.17-3.991-.002-8.039.475-11.938-.376-4.696-1.025-8.751-3.881-12.664-6.672-6.191-4.416-12.383-8.831-18.574-13.247-1.097-.782-2.215-1.586-2.992-2.687-1.736-2.458-1.398-5.764-1.014-8.749,2.226-17.3,3.533-35.003-.164-52.604-5.144-8.543-12.841-15.424-17.33-24.329-2.306-4.575-3.693-9.546-5.512-14.335-1.922-5.058-4.328-9.915-6.461-14.887-3.662-8.536-6.513-17.394-9.218-25.8-.758-14.39,1.754-28.73,4.238-42.991,7.127-11.588,14.646-22.936,22.54-34.016,2.706-3.798,5.474-7.595,7.433-11.827,1.707-3.686,2.768-7.632,3.821-11.555,3.317-12.358,6.639-24.738,8.79-37.352" fill="none" stroke="#fff" stroke-dasharray="5 11 5 11 5 11" stroke-linecap="round" stroke-miterlimit="10" stroke-width="1.25"/>
  <path d="M409.084,213.193c-10.397-1.79-20.684,2.743-30.672,6.14-24.911,8.47-52.084,10.184-77.863,4.91-20.047-4.101-39.398-12.346-59.847-13.084-6.958-.251-13.915.378-20.849,1.007-9.768.885-19.537,1.771-29.305,2.656-28.073,2.545-56.146,5.089-84.219,7.634-6.388.579-12.806,1.163-19.033,2.702-17.761,4.389-32.649,16.134-46.929,27.571" fill="none" stroke="#fff" stroke-dasharray="5 11 5 11 5 11" stroke-linecap="round" stroke-miterlimit="10" stroke-width="1.25"/>
  <path d="M512.657,537.441c-10.277-16.484-20.553-32.967-30.83-49.451-4.383-7.031-8.774-14.075-12.466-21.492-7.487-15.04-12.003-31.411-19.391-46.499-6.744-13.773-15.916-26.582-19.3-41.276-.06-14.908-.119-29.815-.179-44.723-.023-5.795-.045-11.608.669-17.359,2.245-18.079,11.696-35.127,10.992-53.331-.045-1.169-.139-2.363-.602-3.438-.445-1.033-1.204-1.893-1.946-2.739-12.083-13.789-22.655-28.901-30.472-44.078,30.151-.269,60.302-.539,90.454-.808,26.723-.239,53.632-.496,79.843-5.705,14.56-2.894,28.773-7.292,42.954-11.682" fill="none" stroke="#fff" stroke-dasharray="5 11 5 11 5 11" stroke-linecap="round" stroke-miterlimit="10" stroke-width="1.25"/>
  <path d="M47.442,36.087c13.895-4.088,27.79-8.176,41.685-12.264,14.093-4.146,28.231-8.303,42.728-10.679,10.409-1.706,20.946-2.483,31.472-3.174,37.959-2.489,76.081-3.878,113.583-9.337,20.84,4.136,42.014,6.289,63.07,9.131,40.191,5.425,80.041,13.376,119.393,23.944,5.561,1.517,11.122,3.034,17.029,4.881,3.218,4.696,5.961,9.717,8.173,14.962,1.445,3.425,2.662,6.941,3.878,10.453,1.187,3.428,2.373,6.855,3.271,9.889,1.794,5.513,4.264,10.807,7.337,15.723,2.062.896,4.31,1.254,6.522,1.656,10.41,1.891,20.577,4.906,30.72,7.916.137.041.277-.039.415-.081s.331-.012.358.129-.283.131-.202.012" fill="none" stroke="#fff" stroke-dasharray="5 11 5 11 5 11" stroke-linecap="round" stroke-miterlimit="10" stroke-width="1.25"/>
  <path d="M536.941,99.473c7.347,8.224,16.457,14.629,25.147,21.419,6.87,5.368,13.517,11.014,20.162,16.658,4.889,4.152,9.778,8.305,14.856,12.6l7.378,12.66c1.968,3.377,3.938,6.758,5.633,10.279,2.304,4.787,4.089,9.81,6.377,14.605,2.213,4.638,4.894,9.053,7.916,13.053,6.689,7.057,13.311,14.177,20.276,21.763-2.341,15.303-.799,30.914-1.544,46.377-.548,11.373-2.335,22.673-2.509,34.057-.11,7.188.421,14.44-1.09,22.021-3.986,10.789-7.619,21.708-10.891,32.734-.935,3.15-1.842,6.313-3.019,9.381-1.397,3.64-3.168,7.127-4.604,10.752-4.519,11.409-5.696,24.107-11.793,35.411-8.417,8.647-16.835,17.294-25.252,25.941-.641.658-1.289,1.327-1.727,2.135-.423.781-.63,1.657-.833,2.521-5.374,22.922-10.749,45.843-16.459,68.833-18.057,6.828-35.59,15.038-52.356,24.525-13.817,9.557-25.274,22.076-36.604,34.482-1.055,1.155-2.118,2.321-2.921,3.663-.871,1.456-1.414,3.08-1.95,4.69-5.698,17.107-11.395,34.213-18.029,51.8-18.583,23.296-35.84,47.648-52.425,72.234-56.949,28.038-112.594,59.642-172.682,79.327-2.565-6.446-4.832-13.011-6.464-19.423,17.659-18.308,35.317-36.615,52.874-54.939.248-13.953.21-27.912-1.214-41.606-10.768-9.329-21.145-19.096-31.519-28.861-6.707-6.313-13.427-12.64-19.463-19.596-8.295-9.56-15.219-20.216-22.995-30.202-13.796-17.716-30.304-33.315-48.812-46.673.398-8.132.793-16.336-.51-24.373-.818-5.046-2.297-9.968-3.104-15.016-.848-5.307-.945-10.701-1.04-16.074-.053-2.986-.103-6.001.508-8.925.694-3.322,2.215-6.405,3.722-9.446,1.79-3.613,3.58-7.225,4.908-10.853-6.577-19.113-14.2-37.866-22.825-56.146-2.069-4.386-4.209-8.78-5.423-13.475-1.03-3.985-1.373-8.115-1.547-12.228-.374-8.849.019-17.73,1.173-26.512" fill="none" stroke="#fff" stroke-dasharray="5 11 5 11 5 11" stroke-linecap="round" stroke-miterlimit="10" stroke-width="1.25"/>
  <path d="M234.131,626.126c14.369-8.466,29.782-18.159,35.33-33.887,1.897-5.378,2.48-11.116,3.003-16.795,1.486-16.138,2.594-32.311,3.325-48.501.063-1.391.099-2.877-.635-4.06-.593-.956-1.601-1.563-2.571-2.134-9.521-5.601-19.043-11.203-28.564-16.804" fill="none" stroke="#fff" stroke-dasharray="5 11 5 11 5 11" stroke-linecap="round" stroke-miterlimit="10" stroke-width="1.25"/>
  <path d="M286.684,474.585c-7.1,4.636-14.498,8.815-22.134,12.501-2.135,1.03-4.306,2.033-6.195,3.465-2.045,1.55-3.697,3.555-5.641,5.23-2.999,2.585-6.616,4.326-10.186,6.037" fill="none" stroke="#fff" stroke-dasharray="5 11 5 11 5 11" stroke-linecap="round" stroke-miterlimit="10" stroke-width="1.25"/>
  <path d="M464.007,458.876c-11.752,14.122-24.142,27.713-37.121,40.716-1.207,1.209-2.449,2.435-3.984,3.183-1.418.691-3.005.936-4.564,1.172-10.167,1.54-20.333,3.079-30.5,4.619-17.812,2.697-35.863,5.401-53.677,3.684l-34.059-17.723c-2.136-1.112-4.308-2.249-6.017-3.945-1.489-1.478-2.56-3.315-3.614-5.13-6.146-10.582-12.292-21.164-18.438-31.746-2.873-4.947-5.804-10.058-6.572-15.727-.654-4.827.311-9.705,1.073-14.517,2.608-16.473,2.845-33.32.702-49.86" fill="none" stroke="#fff" stroke-dasharray="5 11 5 11 5 11" stroke-linecap="round" stroke-miterlimit="10" stroke-width="1.25"/>
  <path d="M235.316,342.877c-.703-4.852-4.403-8.645-7.909-12.072-2.429-2.375-4.859-4.749-7.288-7.124-.743-.726-1.499-1.47-1.969-2.396-.632-1.246-.686-2.695-.755-4.091-.155-3.145-.462-6.332-1.601-9.268-1.837-4.737-5.649-8.386-9.347-11.869-.966-.91-1.944-1.829-3.095-2.491-1.565-.9-3.371-1.28-5.156-1.555-8.599-1.325-17.367-.502-26.613.731l-1.082,3.138c-.696,2.384-.89,4.913-.568,7.375.437,3.342,1.798,6.482,3.145,9.571,2.293,5.26,4.586,10.521,6.878,15.781.953,2.187,1.921,4.429,2.084,6.81.211,3.085-.942,6.077-1.542,9.111-.106.538-.196,1.092-.101,1.631.156.89.79,1.62,1.476,2.208,3.636,3.116,9.132,3.465,12.534,6.835.765.758,1.405,1.655,2.286,2.274,1.396.982,3.192,1.139,4.895,1.254,10.203.687,20.43.927,30.656,1.126-.043-.019.115.112.072.093-.013-.016,3.83-11.348,3.001-17.07Z" fill="none" stroke="#b5b33e" stroke-miterlimit="10"/>
  <path d="M202.073,226.083c3.657-4.154,7.95-6.849,12.703-8.966,2.01-.895,4.206-1.271,6.376-1.638,5.263-.892,10.525-1.783,15.788-2.675,1.061-.18,2.152-.359,3.206-.142,1.126.232,2.108.894,3.087,1.498,9.943,6.127,22.075,7.129,33.637,8.778,10.389,1.482,20.687,3.608,30.813,6.362.705.192,1.442.405,1.959.921.342.341.557.785.757,1.224,2.829,6.195,3.982,13.146,3.304,19.922-.075.746-.204,1.557-.76,2.06-.526.477-1.292.549-2,.597-3.363.229-6.774.456-10.078-.211-4.655-.94-8.754-3.574-12.945-5.807s-8.869-4.146-13.567-3.452c-3.462.511-6.552,2.387-9.504,4.268-1.321.842-2.669,1.708-4.192,2.079-1.133.276-2.314.265-3.48.252-4.745-.052-9.489-.104-14.234-.156-3.163-.035-6.366-.075-9.422-.889-3.872-1.032-7.299-3.247-10.855-5.094-6.705-3.484-13.98-5.705-21.209-7.908.874-3.562.742-6.461.541-10.123-.045-.219.075-.898.075-.898Z" fill="none" stroke="#b5b33e" stroke-miterlimit="10"/>
  <path d="M388.379,236.056c4.035,2.895,7.839,6.111,11.366,9.607,1.051,1.042,2.087,2.12,2.861,3.382,2.342,3.819,1.955,8.645,1.49,13.1-.892,8.552-1.899,17.449-6.498,24.715-3.367,5.32-8.707,9.994-8.997,16.283-.142,3.077.942,6.447-.67,9.072-.766,1.248-2.034,2.095-3.308,2.817-10.076,5.712-22.509,5.828-33.794,3.22-3.632-.839-7.26-1.968-10.367-4.027s-5.669-5.157-6.414-8.809c-.413-2.026-.259-4.119-.103-6.181.45-5.946.902-11.905,1.966-17.772,1.33-7.334,3.624-14.644,3.034-22.074-.191-2.404-.515-5.259,1.336-6.804.798-.666,1.851-.922,2.861-1.17,3.986-.977,7.97-2.137,11.563-4.12s6.801-4.862,8.559-8.57c1.357-2.863,2.421-6.68,5.55-7.18.844-.135,1.704.024,2.543.183,3.024.572,6.049,1.143,9.073,1.715,3.241.612,6.458,1.544,7.948,2.613Z" fill="none" stroke="#b5b33e" stroke-miterlimit="10"/>
  <path d="M479.636,360.233c-2.935,2.9-3.845,5.614-3.538,9.729.182,2.442,1.59,4.623,2.092,7.019.928,4.434-1.314,8.843-3.383,12.873-1.397,2.723-2.77,5.553-3.247,8.79-1.055,3.545-1.638,7.231-1.727,10.929-.025,1.036.017,2.157.655,2.972.568.724,1.489,1.055,2.362,1.348,2.951.99,5.934,1.952,8.659,3.455,2.78,1.533,5.259,3.613,8.177,4.867,4.424,1.902,9.704,1.686,13.959-.57,2.01-1.066,3.807-2.581,5.038-4.494,1.914-2.975,2.338-6.693,2.056-10.22s-1.213-6.965-1.803-10.454c-2.177-12.88.479-26.519,7.33-37.642,1.127-1.829,2.368-3.603,3.229-5.571.613-1.401,1.031-2.893,1.801-4.214,2.162-3.71,7.038-6.121,6.899-10.403,1.037-1.644,3.156-2.2,4.622-3.477,1.951-1.699,2.544-4.562,2.145-7.119s-1.638-4.893-2.858-7.175c-.296-.553-.637-1.148-1.222-1.375-.494-.192-1.046-.074-1.569.011-5.484.895-10.783-2.048-15.58-4.853-2.318-1.355-4.888-2.753-7.537-2.317-2.369.39-4.298,2.228-5.414,4.354s-1.549,4.533-1.968,6.897c-1.102,6.218-2.204,12.435-3.305,18.653-.131.737-.275,1.507-.736,2.098-.41.526-1.022.846-1.552,1.25-3.221,2.453-3.248,7.763-6.644,9.967-1.207.783-2.706,1.061-3.838,1.949-1.03.808-2.189,1.446-3.102,2.72Z" fill="none" stroke="#b5b33e" stroke-miterlimit="10"/>
  <path d="M159.107,248.077c2.074,11.125,3.484,22.373,4.167,33.844-1.32,7.478.234,15.552-2.897,22.47-1.463,3.233-3.854,5.952-6.353,8.472-5.421,5.466-11.526,10.253-18.034,14.661-7.006-4.135-14.305-7.801-21.924-10.652-5.149-1.927-10.546-3.495-16.042-3.364-3.793.091-7.703.976-11.307-.212-1.663-.548-3.153-1.51-4.622-2.461-5.765-3.734-11.53-7.469-17.416-11.433.919-15.956,1.27-31.945,1.144-48.518,5.491-6.174,11.272-12.091,17.608-18.165,20.935-.325,41.87-.65,62.836-1.081,3.948,4.207,7.658,8.637,11.106,13.262.783,1.051,1.851,3.368,1.734,3.177Z" fill="none" stroke="#b5b33e" stroke-miterlimit="10"/>
</svg>