<?xml version="1.0" encoding="UTF-8"?>
<svg id="Layer_5" xmlns="http://www.w3.org/2000/svg" viewBox="0 0 200.224 179.541">
  <defs>
    <style>
      .cls-1 {
        fill: #fff;
        stroke-dasharray: 0 0 0 0 0 0;
      }

      .cls-1, .cls-2 {
        stroke: #fff;
        stroke-miterlimit: 10;
      }

      .cls-2 {
        fill: none;
        stroke-width: 10px;
      }
    </style>
  </defs>
  <ellipse class="cls-2" cx="98.385" cy="89.771" rx="67" ry="65"/>
  <path class="cls-1" d="M159.557,75.888c-11.996,2.34-24.026-2.77-36.092-4.721-6.435-1.041-13.015-1.179-19.489-.409-6.277.746-12.48,2.342-18.801,2.309-1.817-.01-4.103-.546-4.426-2.334-.376-2.087,2.412-3.853,1.859-5.9-.416-1.539-2.525-1.973-3.996-1.357s-2.542,1.895-3.819,2.849c-2.633,1.969-6.071,2.505-9.359,2.536s-6.587-.377-9.856-.027-6.635,1.597-8.593,4.239-1.929,6.872.683,8.868c2.697,2.061,6.504,1.023,9.857.504,10.921-1.692,22.61,3.949,28.081,13.551.34.596.666,1.241.643,1.927-.026.79-.507,1.484-.982,2.116-1.618,2.152-3.443,4.307-3.969,6.947s.873,5.899,3.538,6.282c.901-1.457-1.217-3.09-1.168-4.802.042-1.462,1.623-2.369,3.05-2.685s3.021-.391,4.104-1.373c1.288-1.166,1.411-3.241,2.692-4.415.698-.64,1.648-.921,2.572-1.129,4.167-.935,8.579-.755,12.656.517-1.472,1.583-1.534,4.087-.757,6.105s2.241,3.679,3.618,5.346c2.054,2.489,3.971,5.092,5.739,7.792,1.736,2.652,3.337,6.142,1.642,8.82-1.834,2.897-6.153,2.65-9.373,1.475-.559-.204-1.16-.429-1.734-.271-1.264.347-1.305,2.325-.331,3.201s2.408.947,3.719.971c2.005.037,4.009.074,6.014.111.379.007.807.035,1.055.323.391.453.049,1.144-.296,1.633-1.652,2.342-3.894,4.963-6.737,4.598-1.504-.193-2.976-1.238-4.414-.759-1.724.574-2.021,3.166-.83,4.539s3.225,1.682,5.026,1.439c5.622-.758,9.664-5.655,12.833-10.36,1.741-2.585,3.473-5.647,2.646-8.652-.262-.952-.775-1.839-.889-2.82-.146-1.267.389-2.503.568-3.766.605-4.273-2.817-8-3.86-12.187-.349-1.4-.402-2.971.364-4.194,1.424-2.275,4.661-2.196,7.324-2.529,5.798-.725,10.663-4.508,15.63-7.585s11.057-5.601,16.529-3.552c-1.236-4.382-2.181-8.846-2.67-13.17Z"/>
</svg>