<?xml version="1.0" encoding="UTF-8"?>
<svg id="Layer_13" xmlns="http://www.w3.org/2000/svg" viewBox="0 0 200.224 179.541">
  <ellipse cx="97.715" cy="90.217" rx="67" ry="65" fill="none" stroke="#fff" stroke-miterlimit="10" stroke-width="10"/>
  <path d="M159.597,77.794c.015-.007.03-.014.045-.021-.206-.05-.552.166-.745.226-.469.146-.953.235-1.411.415s-.902.385-1.37.546c-.257.088-.52.216-.783.281-.539.135-.979.403-1.463.689-.068.064-.381.055-.525.084-.292.058-.568.194-.82.35-.318.197-.662.325-.985.513-.481.281-.966.455-1.48.667-.633.26-1.216.627-1.835.919-.628.296-1.213.601-1.798.971-1.191.754-2.531,1.193-3.654,2.063-1.151.892-2.19,1.876-3.235,2.887-.575.556-1.239.975-1.78,1.573-.407.45-.781.927-1.208,1.359-.55.556-1.095,1.058-1.516,1.727-.331.526-.675,1.052-.958,1.606-.51,1.001-.895,2.074-1.153,3.166-.425,1.797-.474,3.682-.191,5.504.145.934.266,1.872.426,2.804.189,1.101.446,2.197.672,3.292.247,1.193.424,2.391.619,3.593.098.608.189,1.213.271,1.823s.112,1.224.195,1.834c.331,2.454.441,4.938.645,7.404.113,1.361.239,2.733.421,4.086.127.946.228,1.901.26,2.855.02.583.025,1.168.015,1.751-.012.708-.17,1.416-.293,2.109-.094-.016-.179-.046-.232-.053-.091-.012-.192-.021-.285-.026-.15-.007-.293-.05-.442-.052-.152-.002-.297.035-.45.019-.506-.053-1.037-.102-1.548-.082-.284.011-.534-.045-.814-.07-.553-.049-1.15-.083-1.7-.007-.74.103-1.483.09-2.226.165-.487.049-.963.098-1.454.092-.511-.007-1.021-.052-1.531-.082-.533-.032-1.109-.122-1.633.005-.283.069-.671.19-.905-.07-.332-.369.133-1.045.331-1.374.377-.626,1.007-1.056,1.565-1.501.337-.269.717-.473,1.039-.76.24-.214.485-.429.731-.636.667-.562,1.396-1.101,1.954-1.779.311-.378.57-.763.848-1.163.227-.327.474-.62.656-.978.246-.486.523-.962.716-1.473.206-.547.232-1.107.252-1.684.072-2.063-.742-4.023-1.852-5.723-.26-.399-.521-.789-.772-1.193-.255-.41-.515-.821-.785-1.221-.388-.575-.767-1.159-1.142-1.741-.518-.801-.999-1.617-1.467-2.446-.208-.369-.408-.746-.628-1.108-.096-.159-.185-.322-.303-.467-.307-.378-.531-.8-.783-1.222.06.062.081.15.084.242-.164.103-1.39-2.525-1.521-2.827-.233-.538-.418-1.111-.623-1.661-.199-.536-.345-1.086-.602-1.6-.344-.689-.775-1.319-1.178-1.971-.303-.491-.58-.994-.944-1.445-.339-.42-.783-.818-1.231-1.119-.335-.225-.654-.5-1.051-.605-1.039-.276-2.206.059-3.046.711-.196.152-.345.362-.521.535-.165.161-.331.302-.445.507-.084.151-.138.308-.237.453-.071.104-.15.201-.217.307-.215.344-.345.8-.433,1.194s-.078.784-.011,1.181c.068.406.265.783.391,1.173.13.401.301.784.45,1.178.193.511.463.977.627,1.503.172.552.348,1.125.458,1.692.088.454.203.968.161,1.432-.044.484-.198,1.022-.396,1.464-.339.755-1.069,1.341-1.689,1.856-.246.205-.552.277-.852.372-.27.085-.624.169-.908.109-.773-.164-1.212-.872-1.575-1.499-.455-.785-.787-1.62-1.015-2.498-.273-1.05-.516-2.123-.64-3.203-.056-.49-.093-.979-.138-1.47-.036-.397-.145-.8-.143-1.2.003-.5.106-1.001.138-1.501.022-.342.076-.688.167-1.019.204-.743.542-1.406.921-2.07.177-.31.317-.687.532-.97.144-.191.269-.348.377-.564.203-.409.218-.904.666-1.131-.004-.376-.092-.735-.264-1.079.174-.059.25-.065.317-.083-.101-.253-.558-.233-.807-.277-1.032-.183-2.003-.221-3.059-.221-1.098,0-2.191.064-3.287.076-1.006.011-2.003-.072-3.007-.078-.673-.004-1.345-.019-2.015-.069-.243-.018-.547-.138-.779-.054-.142,1.23.112,2.438-.19,3.662-.397,1.607-1.351,2.954-2.554,4.075-.832.775-1.812,1.468-2.256,2.55-.413,1.005-.231,2.187-.322,3.246-.079.916-.157,1.849-.297,2.757-.141.918-.317,1.696-.893,2.444-.572.743-1.662,1.099-2.552.797-.498-.169-.75-.601-.865-1.099-.22-.951-.269-2.021-.201-2.992.038-.537.158-1.064.197-1.601.056-.768-.029-1.539.018-2.308.064-1.052.475-2.173.351-3.221-.282.102-.482.734-.613.957-.21.359-.454.676-.621,1.057-.284.649-.324,1.271-.5,1.943-.163.625-.441,1.215-.582,1.852-.112.507-.083,1.015-.082,1.53,0,.645.137,1.493-.304,2.046-.314.392-.82.349-1.228.142-.417-.211-.675-.683-.844-1.095-.464-1.128-.655-2.346-.753-3.568-.047-.59.106-1.151.137-1.737.028-.508-.02-1.007.043-1.513.077-.624.218-1.23.271-1.859.045-.538.128-1.004.353-1.5.526-1.156.964-2.548,1.81-3.519.253-.289.607-.553.953-.724.2-.098.651-.122.8-.285.443-.488-.348-1.302-.712-1.563-.427-.305-.787-.755-1.16-1.128-.62-.62-1.243-1.234-1.876-1.84-1.923-1.838-3.718-3.832-5.8-5.492-1.23-.981-2.507-1.989-3.821-2.855-.539-.355-1.05-.755-1.598-1.094-.525-.324-1.111-.473-1.64-.774-.46-.261-.708-.744-1.167-1.014-.45-.265-.93-.357-1.449-.366-.378-.006-.738.028-1.111.061-.303.027-.623-.03-.922.021-1.143.195-1.695,2.029-1.974,2.967-.522,1.754-.45,3.542-.451,5.352,0,2.28.02,4.508.289,6.775s.688,4.605,1.638,6.682c.916,2.002,1.234,3.399,1.999,5.071.534,1.167.8,2.445,1.249,3.647.399,1.068.625,2.199,1.16,3.208.311.587.349,1.212.302,1.87-.111,1.577-1.687,1.925-2.923,1.248-.398-.218-.622-.557-.923-.881-.261-.281-.553-.531-.807-.82-.457-.518-.811-1.108-1.266-1.617-.317-.355-.672-.675-.995-1.022-.246-.264-.908-.598-1.19-.831-.459-.379-.788-.842-1.232-1.248-1.262-1.155-2.159-2.137-3.386-3.337-.342-.335-.713-.639-1.063-.965-.321-.298-.44-.563-.655-.93-.375-.638-1.18-1.163-1.557-1.799-.808-1.359-1.493-2.327-2.155-4.077-.333-.881-.808-1.749-1.241-2.594-.324-.634-.577-1.306-.798-1.982-.207-.633-.486-1.2-.731-1.813-.28-.701-.421-1.534-.585-2.27-.113-.51-.097-1.016-.155-1.53-.047-.419-.169-.819-.208-1.24-.068-.731-.072-1.454-.071-2.187,0-.907.045-1.792.19-2.69.135-.833.339-1.667.451-2.501.123-.912.261-1.728.552-2.603.299-.896.674-1.712,1.053-2.572.568-1.289,1.127-2.513,2.121-3.548.628-.654,1.341-1.423,2.115-1.905.568-.354,1.284-.57,1.914-.794.693-.247,1.449-.385,2.163-.578.925-.25,1.806-.512,2.769-.578,1.388-.095,2.745-.277,4.12-.469,1.427-.199,2.906-.188,4.344-.286,1.383-.094,2.757-.282,4.14-.382,1.54-.112,3.043-.481,4.553-.788,1.463-.297,2.953-.521,4.367-1.011,1.357-.47,2.689-1.041,3.984-1.662,1.654-.793,3.287-1.63,4.913-2.483,1.238-.65,2.446-1.365,3.71-1.966,1.387-.659,2.694-1.527,4.119-2.097,1.372-.549,2.66-1.29,3.984-1.946,2.818-1.395,5.736-2.614,8.888-2.983,2.652-.31,5.309-.092,7.965-.114,2.181-.019,4.28.462,6.427.712,2.504.292,4.965.896,7.459,1.237.973.133,1.923.403,2.885.603,1.291.268,2.631.21,3.941.326,1.483.132,2.963.109,4.451.109.474,0,.948.019,1.418-.036.932-.111,1.7-.241,2.586-.352.492.59,1.04,1.137,1.437,1.794.137.228.301.425.458.638.1.136.167.282.246.43.155.288.37.505.554.77,1.134,1.632,2.261,3.28,3.378,4.93,1.547,2.286,3.124,4.663,4.094,7.258.82,2.193,1.757,4.399,1.842,6.762.009.241.06.445-.014.673-.08.244-.245.151-.031.217Z" fill="#fff" stroke="#fff" stroke-dasharray="0 0 0 0 0 0" stroke-miterlimit="10"/>
</svg>