<?xml version="1.0" encoding="UTF-8"?>
<svg id="Layer_10" xmlns="http://www.w3.org/2000/svg" viewBox="0 0 200.224 179.541">
  <defs>
    <style>
      .cls-1 {
        fill: #fff;
        stroke-dasharray: 0 0 0 0 0 0;
      }

      .cls-1, .cls-2 {
        stroke: #fff;
        stroke-miterlimit: 10;
      }

      .cls-2 {
        fill: none;
        stroke-width: 10px;
      }
    </style>
  </defs>
  <ellipse class="cls-2" cx="100.112" cy="89.771" rx="67" ry="65"/>
  <path class="cls-1" d="M38.662,79.026c2.672,1.12,5.288,2.05,7.998,3.016.774.276,1.533.578,2.293.892.929.383,1.729.983,2.668,1.334,1.453.542,2.751,1.41,4.273,1.73,1.969.414,3.705,1.199,5.581,1.873,1.509.542,2.907,1.501,4.378,2.162,1.442.647,2.669,1.362,3.909,2.33,1.202.938,1.557,1.918,2.077,3.31.645,1.723.209,3.581.726,5.333.207.704.625,1.338.848,2.037.226.706.376,1.526.446,2.262.176,1.839.26,3.723.136,5.564-.139,2.054-.261,4.11-.404,6.164s-.028,4.117-.162,6.179c-.106,1.627-.16,3.113.021,4.735.158,1.413.036,2.837.223,4.255.282,2.144.12,4.518.88,6.566.626,1.688,1.978,2.847,3.596,3.489.6.238,1.296.424,1.714-.164.488-.688.236-1.903.361-2.721,1.682,1.002,3.282,2.131,4.966,3.137.668.399,1.548.888,2.346.644,1.284-.392,1.41-1.612,1.102-2.715-.249-.89-.474-1.688-1.114-2.379-.936-1.011-1.945-1.972-2.912-2.957-.645-.657-1.316-1.353-1.834-2.123-.489-.727-.833-1.515-1.287-2.255-1.043-1.7-.158-4.083.022-5.907.122-1.237.32-2.517.515-3.744.203-1.281.596-2.561.704-3.853.15-1.807-.19-3.78.591-5.48.191-.416.552-1.278.955-1.491.508-.269.555.143.754.567.483,1.029,1.032,2.154,1.222,3.281.205,1.219-.104,2.469-.095,3.694.007.933.102,1.848.035,2.781-.12,1.696-.225,3.332.027,5.018.133.889.118,1.894.289,2.753.066.33.33.988.645,1.137,1.719-1.71,1.061-5.024,3.014-6.492.07.4-.041.844-.066,1.247-.047.791.007,1.542.089,2.329.121,1.159.247,2.307.488,3.449.292,1.387.777,2.696,2.271,2.915,1.563.229,2.393-2.048,2.514-3.28.115-1.177-.103-2.187.324-3.308.322-.845.591-1.614.643-2.526.059-1.045.146-1.99-.036-3.029-.146-.836-.463-1.609-.733-2.411-.496-1.472-1.364-2.902-2.158-4.234-.846-1.419-1.856-2.75-2.709-4.172-.23-.383-1.037-1.465-.922-1.932.073-.027.147-.028.247.062.359-.483.768-.902,1.219-1.287.262-.224.529-.442.778-.681.365-.35.667-.757,1.02-1.118.864-.882,1.792-1.713,2.806-2.419.394-.274.834-.452,1.232-.713.365-.239.726-.478,1.093-.715.494-.32,1.015-.586,1.51-.9.242-.154.45-.344.673-.523.335-.268.697-.491,1.059-.719.652-.411,1.337-.894,1.892-1.435.732-.714,1.505-1.442,2.095-2.282.476-.679.829-1.431,1.292-2.117.252-.373.46-.783.65-1.19.226-.482.502-.936.731-1.415.375-.786.783-1.556,1.158-2.343.362-.758.773-1.515,1.207-2.236.261-.435.712-.536,1.194-.479.326.039.578.217.858.369.38.205.803.326,1.169.56.349.223.6.455.99.613.458.186.854.488,1.312.667.22.086.453.135.678.21.263.088.516.224.789.28.204.042.412.027.617.065.318.059.614.207.915.325.497.195.976.227,1.492.325.546.104,1.12.101,1.656.24.562.145,1.094.301,1.672.377.447.058.875-.007,1.322-.011.372-.004.701.064,1.075.014.365-.049.73-.119,1.074-.257.213-.086.407-.199.631-.257.161-.042.296-.046.446-.122.205-.104.515-.24.665-.42-.099-.22-.4-.32-.605-.41-.441-.194-.934-.376-1.414-.438-.321-.041-.612.002-.892-.19-.162-.111-.333-.212-.494-.324.156-.074.44-.05.619-.091.433-.1.855-.264,1.262-.436.348-.147,1.614-.541,1.399-1.132-.187-.514-.996-.359-1.406-.362-.393-.003-.774-.016-1.156-.109-.447-.108-.876-.2-1.341-.191-1.214.023-2.426-.081-3.644-.085-.583-.002-1.11.051-1.689-.069-.3-.062-.601-.116-.899-.183-.362-.08-.717-.097-1.081-.157-.445-.074-.909-.269-1.328-.431-.363-.141-.721-.353-.958-.668-.195-.259-.299-.597-.335-.915-.038-.339-.055-.708-.063-1.048-.019-.863.39-1.459.766-2.194.277-.542.453-1.151.667-1.72.202-.538.277-1.109.562-1.616.623-1.105,1.116-2.265,1.793-3.338.246-.389.542-.952.958-1.194.167-.097.353-.104.535-.152.302-.08.575-.153.892-.152.594.001,1.222.135,1.804.254.701.144,1.529.598,2.102,1.026.557.416,1.134.858,1.647,1.325.315.287.654.542.98.815.418.349.709.806,1.046,1.229.257.322.539.617.839.899.349.328.631.698.942,1.059.509.59,1.118,1.118,1.714,1.619.298.251.645.424.993.592.352.17.684.368,1.055.495.604.207,1.288.513,1.917.221.306-.142.567-.398.856-.573.257-.156.522-.288.75-.487.515-.449.84-.89.974-1.569.113-.572-.05-1.274-.284-1.804-.279-.633-.656-1.381-1.168-1.847-.529-.482-.634-1.222-1.068-1.774-.501-.636-1.091-1.187-1.539-1.867-.445-.676-.97-1.306-1.297-2.055-.26-.596-.367-1.146-.431-1.791-.047-.471.03-.929.026-1.398-.003-.347-.025-.6.084-.936.106-.326.129-.678.378-.919.015.042.061.056.094.114.547.021,1.056.013,1.57.191.233.081.462.149.692.242.798.322,1.592.678,2.338,1.11.272.158.559.284.833.437.277.154.53.345.798.514.601.378,1.219.718,1.846,1.051.571.303,1.128.611,1.717.881s1.193.491,1.806.697c.922.31,1.912.659,2.896.467.303-.059.647-.088.903-.272.187-.134.385-.308.509-.503.131-.205.237-.436.324-.663.06-.157.094-.32.139-.482.05-.18.133-.342.193-.517.051-.148.054-.302.085-.453.036-.178.12-.343.143-.525.033-.26,0-.517.014-.776.037-.744-.197-1.496-.371-2.211-.237-.971-.732-1.814-1.155-2.707-.205-.431-.455-.847-.731-1.237-.145-.205-.331-.376-.482-.577-.156-.208-.286-.432-.462-.625-.691-.757-1.414-1.54-2.213-2.184-.432-.348-.824-.755-1.272-1.081-.193-.141-.38-.283-.563-.436-.236-.197-.493-.33-.753-.492-.853-.533-1.641-1.152-2.529-1.633-2.435-1.318-4.503-3.177-6.808-4.69-.673-.442-1.347-.867-2.052-1.257-.684-.378-1.336-.885-2.069-1.166-.566-.217-1.186-.347-1.777-.47-.305-.064-.616-.085-.924-.125-.376-.049-.725-.094-1.105-.088-.657.01-1.315-.025-1.973-.009s-1.31.107-1.968.136c-.304.013-.61.01-.913.048-.389.05-.773.135-1.163.179-.326.037-.653.056-.976.115-.243.044-.55.068-.783.165.016.005.033.009.09.052-.369.048-.792.061-1.146.209-.147.062-.298.113-.441.185-.186.093-.344.228-.503.358-.216.176-.438.345-.656.518-.532.421-.994.928-1.445,1.433-.512.574-.981,1.197-1.445,1.81-1.034,1.368-1.885,2.843-2.578,4.41-.302.683-.556,1.391-.894,2.058-.295.581-.703,1.124-1.182,1.566-.397.365-.874.693-1.342.959-.484.275-1.02.473-1.546.653-.546.187-1.094.268-1.667.311-.281.021-.562.027-.844.029s-.564.017-.844-.008c-.965-.087-1.93-.328-2.865-.574-.386-.102-.768-.194-1.161-.263-.303-.054-.648-.101-.936-.228-.72-.052-1.475-.184-2.195-.106-.225.024-.449.043-.673.07-.397.048-.781.115-1.172.205-1.004.232-2.006.474-3.013.691-.847.182-1.626.475-2.445.75-1,.337-2,.669-2.995,1.02-1.091.384-2.166.807-3.239,1.239-1.294.521-2.517,1.152-3.753,1.797-2.847,1.484-5.729,2.888-8.773,3.922-1.26.428-2.571.732-3.847,1.111-1.486.442-3.02.75-4.554.969-1.493.213-3.049.391-4.561.361-1.29-.025-2.579-.039-3.869-.065-1.064-.021-2.052-.188-3.095-.364-.823-.139-1.657-.151-2.471-.358-.673-.171-1.356-.399-2.01-.631-.438-.156-.885-.322-1.335-.438-.407-.106-.801-.289-1.188-.451-.211-.088-.545-.29-.788-.268-.024.174-.023.355-.043.532-.07.646-.437,1.205-.702,1.783-.538,1.172-.825,2.468-1.164,3.708-.26.955-.465,1.956-.47,2.95,0,.127.006.246-.028.37-.028.101-.093.19-.112.293-.023.129-.002.254-.035.384-.057.227-.188.499-.175.741.014.26.312.24.508.286.336.079.682.298.971.487.157.103.342.227.475.356-.013-.016-.025-.032-.599-.374Z"/>
</svg>