<?xml version="1.0" encoding="UTF-8"?>
<svg id="Layer_19" xmlns="http://www.w3.org/2000/svg" viewBox="0 0 200.224 179.541">
  <defs>
    <style>
      .cls-1 {
        fill: #fff;
        stroke-dasharray: 0 0 0 0 0 0;
      }

      .cls-1, .cls-2 {
        stroke: #fff;
        stroke-miterlimit: 10;
      }

      .cls-2 {
        fill: none;
        stroke-width: 10px;
      }
    </style>
  </defs>
  <ellipse class="cls-2" cx="100.112" cy="95.742" rx="67" ry="65"/>
  <path class="cls-1" d="M92.877,62.517c-.625-.591-1.53-.75-2.38-.882-.524-.081-1.061-.163-1.579-.054-.494.104-1.173.294-1.373-.169-1.03.019-2.058.096-3.079.229-3.479.456-6.857,1.58-9.98,3.178-.992.508-1.959,1.063-2.909,1.645-7.509,4.605-14.005,11.076-17.848,19.002-.882,1.819-2.85,6.284-1.389,5.814,2.114,1.631,3.294-1.3,4.94-1.95,1.029-.406,2.063-.814,3.139-1.074,1.414-.341,2.88-.422,4.334-.376,2.242.072,4.474.445,6.509,1.042,2.165,2.383,3.621,5.306,5.184,8.122s3.315,5.626,5.881,7.571c.542.41,1.126.783,1.778.974.503.147,1.032.181,1.555.207,1.724.086,3.462.098,5.155.436s3.367,1.037,4.391,2.181c.589,1.518,1.442,2.919,2.108,4.406s1.147,3.118.822,4.584c-.42,1.4-1.347,2.582-2.236,3.742-1.591,2.076-3.126,4.203-4.407,6.482-.343.611-.672,1.241-.824,1.925-.135.606-.128,1.232-.174,1.851-.077,1.039-.311,2.079-.805,2.996s-1.264,1.706-2.224,2.109c-.434.182-.903.286-1.227.354-.146.701-.181,1.424-.104,2.136.024.225.114.504.339.525.143.013.267-.09.403-.134.148-.048.308-.025.463-.008,1.052.117,2.112-.056,3.156-.229.117-.019.243-.043.325-.128.047-.048.074-.111.101-.173,1.009-2.349,1.888-4.764,2.434-7.261.064-.292.125-.589.26-.856.146-.288.372-.528.597-.76,1.796-1.852,3.753-3.549,5.451-5.491s3.151-4.182,3.73-6.949c.182-.541.191-1.123.191-1.694,0-1.442-.045-2.884-.136-4.322-.006-.09-.01-.188.042-.262.057-.082.163-.111.261-.134,1.774-.411,3.654-.819,5.388-.259.068.022.141.049.18.11.048.074.027.172.005.257-.51,1.955-1.035,3.944-2.108,5.655-.393.627-.857,1.212-1.177,1.879-.762,1.588-.625,3.446-.386,5.19.262,1.91.626,3.806,1.137,5.626.474.426,1.196.367,1.827.283.372-.05.745-.1,1.117-.15.079-.011.163-.023.225-.073.066-.053.095-.138.121-.219.426-1.372.467-2.836.351-4.268s-.383-2.846-.559-4.272c-.089-.724-.155-1.467.014-2.178.436-1.842,2.276-2.98,3.313-4.4.312-.946.794-1.858,1.533-2.526s1.757-1.069,2.742-.897c3.911-.691,7.895-.964,11.864-.813.736.028,1.487.074,2.168.355.565.233,1.053.616,1.518,1.012,3.539,3.008,6.196,6.966,9.847,9.835-1.051.407-1.954,1.115-2.839,1.813-2.053,1.619-4.107,3.238-6.053,4.84l-3.58,3.731c-.574.598-1.155,1.205-1.561,1.928-.115.205-.196.508,0,.64.112.075.262.048.393.017,1.036-.245,2.057-.556,3.055-.928-.182.476-.114,1.04.175,1.459s.792.683,1.301.683c.641,0,1.212-.383,1.725-.768,2.643-1.985,4.912-4.416,7.258-6.745,1.137-1.129,2.319-2.253,3.751-2.972.587-.295,1.271-.58,1.503-1.194.145-.384.073-.813-.016-1.215-.406-1.848-1.115-3.628-2.11-5.264-2.054-2.355-3.167-5.509-3.046-8.632.011-.274.077-.61.34-.688.208-.062.416.08.584.216,2.248,1.817,4.142,4.041,6.39,5.859.059-.069.057-.183-.278-.343,3.307,1.238,6.637,2.537,9.515,4.583.095-.654.404-1.253.682-1.853,1.393-3.002,2.104-6.292,3.576-9.256-2.507-1.016-4.913-2.282-7.061-3.903-.565-.385-1.185-.863-1.236-1.544-.066-.88.829-1.49,1.608-1.904,1.669-.886,3.338-1.773,5.007-2.659.567-.301,1.158-.624,1.505-1.164.368-.572.4-1.291.402-1.972.019-5.87-1.302-11.655-2.723-17.35-1.496-5.994-3.174-12.093-6.709-17.16-.932-1.336-1.997-2.598-3.296-3.581-.843-.638-1.819-1.165-2.874-1.228-.629-.038-1.255.091-1.872.219-.73.151-1.459.302-2.367.537l-6.638,1.582c-.768.183-1.535.366-2.303.549-.523.125-1.046.249-1.568.379-8.956,2.224-17.571,5.926-25.179,11.148-6.867,4.713-12.974,10.767-16.684,18.346-4.48-.72-7.916-4.545-9.689-8.722-1.481-3.488-1.94-7.846.417-10.813,1.638-2.061,4.269-3.009,6.76-3.861,1.283-.439,2.566-.878,3.848-1.316-.238-.15-.476-.299-.105-.245Z"/>
</svg>