<?xml version="1.0" encoding="UTF-8"?>
<svg id="Ed" xmlns="http://www.w3.org/2000/svg" viewBox="0 0 200.224 179.541">
  <ellipse cx="105.871" cy="91.132" rx="67" ry="65" fill="none" stroke="#fff" stroke-miterlimit="10" stroke-width="10"/>
  <path d="M51.959,121.856c4.837-6.787,11.386-12.344,18.871-16.01,2.79-1.366,5.78-2.489,8.885-2.547s6.36,1.095,8.238,3.569c.547.721.971,1.717.529,2.507-.362.646-1.154.889-1.747,1.332-1.51,1.129-1.522,3.488-.632,5.15s2.437,2.85,3.784,4.169c3.274,3.204,5.522,7.441,6.34,11.948.447,2.463.627,5.287,2.569,6.868,1.739,1.416,4.232,1.26,6.463,1.032,1.169-.12,2.388-.256,3.374-.896s1.643-1.951,1.155-3.021c-.372-.817-1.257-1.244-2.053-1.66-3.544-1.853-6.549-4.724-8.56-8.181-.438-.752-.63-2.021.217-2.218,1.377.826,3.137.978,4.635.401.633-1.108-.344-2.486-1.457-3.109s-2.456-.932-3.292-1.896c-.766-.884-.933-2.132-.955-3.302-.126-6.971,4.119-13.834,10.412-16.834-.497,2.45.581,4.996,2.188,6.911s3.707,3.338,5.689,4.862c.937.721,1.936,1.629,1.951,2.811.013.97-.649,1.801-1.002,2.704-.794,2.032.206,4.592,2.167,5.549s4.594.17,5.708-1.707c1.127-1.899.671-4.363-.304-6.345-1.814-3.691-5.14-6.361-8.245-9.058-.672-.583-1.358-1.201-1.709-2.019-1.095-2.553,1.509-5.075,3.807-6.636,1.137-.772,2.848-1.478,3.708-.406.414.516.407,1.239.418,1.901.059,3.564,1.243,7.101,3.341,9.981.595.817,1.286,1.639,1.416,2.642.144,1.11-.432,2.167-.889,3.188-1.213,2.705-1.688,5.737-1.363,8.684.043.387.115.804.399,1.069.606.566,1.582.034,2.176-.544,3.946-3.837,5.464-9.98,3.757-15.213-.996-3.053-2.986-5.804-3.35-8.995-.475-4.167,1.919-8.099,4.536-11.375s5.64-6.441,6.812-10.467c1.746,1.928,4.078,4.044,6.586,3.353,1.642-.452,2.763-2.07,3.082-3.743.534-2.797-.78-5.58-2.057-8.125-1.667-3.322-3.334-6.645-5.001-9.967-1.477-2.943-3.433-6.247-6.694-6.705-3.01-.423-5.834,1.975-6.97,4.794s-.995,5.966-.9,9.004.096,6.216-1.274,8.929c-4.242-5.007-8.583-10.102-14.177-13.533s-12.755-4.98-18.791-2.405c-1.938.827-3.716,2.051-5.752,2.593-2.345.623-4.849.291-7.224.785-4.229.88-7.464,4.212-10.265,7.499-8.828,10.362-16.141,21.908-23.421,33.41-.726,1.147-1.471,2.347-1.609,3.697-.112,1.095.188,2.187.511,3.24,1.15,3.745,2.634,7.387,4.43,10.869.404.784,1.309,1.681,2.06,1.035.014.025.028.051-.523.43Z" fill="#fff" stroke="#fff" stroke-dasharray="0 0 0 0 0 0" stroke-miterlimit="10"/>
</svg>