<?xml version="1.0" encoding="UTF-8"?>
<svg id="Layer_7" xmlns="http://www.w3.org/2000/svg" viewBox="0 0 200.224 179.541">
  <defs>
    <style>
      .cls-1 {
        fill: #fff;
        stroke-dasharray: 0 0 0 0 0 0;
      }

      .cls-1, .cls-2 {
        stroke: #fff;
        stroke-miterlimit: 10;
      }

      .cls-2 {
        fill: none;
        stroke-width: 10px;
      }
    </style>
  </defs>
  <ellipse class="cls-2" cx="100.112" cy="89.771" rx="67" ry="65"/>
  <path class="cls-1" d="M145.748,131.369c-1.072-.119-2.263-.181-3.338-.419-.266-.059-.529-.152-.799-.188-.421-.057-.841.032-1.263.011-.847-.041-1.548-.296-2.362-.472-1.511-.328-2.715-.937-3.95-1.864-1.339-1.005-.765-2.294-.667-3.707.044-.631.24-1.29-.434-1.61-.596-.283-1.363-.43-2.023-.418-.634.012-1.257.239-1.892.271-.674.034-1.356.04-2.011-.194-2.278-.814-4.676-1.341-6.991-2.046-1.195-.364-2.39-1.004-3.483-1.597-1.279-.695-2.48-1.419-3.684-2.236-1.137-.771-2.296-1.423-3.305-2.373-1.312-1.236-2.788-2.147-4.459-2.855-1.164-.493-2.255-1.127-3.434-1.588-.876-.343-1.76-.685-2.644-1-1.409-.501-2.78-.992-4.233-1.403-1.031-.292-2.035-.527-3.085-.689-.451-.07-.947-.126-1.397-.219-.115-.873.934-1.722,1.397-2.373.274-.385.428-.689.589-1.135.256-.71.728-1.421.738-2.191.02-1.602.102-3.232.011-4.831-.056-.995-.006-1.994.1-2.987.08-.745.299-1.489.482-2.216.164-.649.283-1.311.529-1.948.253-.654.874-1.188,1.555-1.364,1.827-.473,2.894,1.247,4.044,2.319,1.495,1.394,2.199,3.24,3.314,4.899,1.012,1.505,1.547,3.408,2.75,4.781.667.762,1.414,1.416,1.976,2.272.425.649.831,1.302,1.301,1.92.913,1.2,2.05,2.298,3.089,3.39.679.714,1.404,1.472,2.128,2.125.365.329,1.378,1.181,1.614.347.119-.42-.112-.965-.196-1.377-.151-.742-.354-1.498-.319-2.259.027-.605.103-1.317-.056-1.907-.195-.724-.523-1.487-.769-2.199-.4-1.153-.735-2.235-1.326-3.31-.687-1.251-1.706-2.214-2.551-3.34-.584-.778-1.404-1.371-2.054-2.112-.645-.735-1.178-1.539-1.804-2.287-.429-.513-.94-.943-1.312-1.502-.381-.572-.811-1.122-1.287-1.623-.939-.99-1.844-2.046-2.922-2.903-1.678-1.333-3.801-3.053-4.467-5.185-.201-.643-.218-1.283-.044-1.93.232-.862.479-1.293,1.181-1.848.551-.436.992-.949,1.593-1.336.976-.628,2.086-1.144,3.109-1.703,2.385-1.302,5.128-2.134,7.744-2.803,2.021-.517,3.97-1.49,5.898-2.271,1.41-.571,2.645-1.387,3.834-2.329.658-.521,1.383-.939,2.043-1.466.617-.492,1.082-1.137,1.531-1.773.302-.427.595-1.044.493-1.608-.125-.692-.866-.979-1.508-.962-.727.019-1.349.481-2.052.649-.362.087-.653.143-.99.287-.275.118-.586.289-.887.31-.118-.551.587-1.145.414-1.747-.158-.548-1.053-.419-1.52-.31-.718.168-1.32.579-1.945.967-.678.422-1.411.787-2.119,1.121-.875.412-1.994.957-2.954,1.015-.37.023-.78-.056-1.152-.086-.534-.043-.954.147-1.458.27-.313-.624-.502-1.534-.549-2.219-.264.291-.279.683-.401,1.039-.149.437-.462.676-.711,1.034-.127-.41.061-2.468-.593-2.332-.323.067-.556,1.142-.703,1.372-.189.295-.603.952-1.007.908.042-.43-.387-2.132-1.049-1.578-.63.528-.087,2.045-1.219,2.18-.038-.953.253-2.084-.374-2.932-.796.032-.444,2.463-1.415,2.309-.028-.288-.031-.585-.051-.87-.032-.451.263-1.536-.122-1.842-.41.871-1.225,1.412-2.086,1.778-.692.294-.444.124-.672-.289-.445-.806-1.899-.856-2.636-1.309-.537-.33-1.578-1.181-.575-1.506.706-.228,1.409-.279,2.128-.435.615-.133,1.184-.384,1.765-.62,1.875-.762,3.749-1.504,5.61-2.307,1.183-.51,2.379-.671,3.599-1.028,1.429-.417,2.877-1.075,4.205-1.74,1.139-.571,1.978-1.515,3.165-2.035.398-.174.812-.248,1.131-.561.283-.278.504-.561.841-.781-.102.392.313,1.808.783,1.771.184-.015.372-.374.485-.505.333-.386.628-.675.862-1.14.228-.455.265-1.006.599-1.398.336.326,1.636.02,2.036-.044.985-.158,1.685-.426,2.515-.926.329-.198.738-.21.962-.559.146-.227.135-.423.08-.693-.154-.763-.668-.83-1.362-.956-3.019-.547-6.16-.481-9.176.011-2.728.444-5.466.426-8.223.5-1.079.029-2.153.194-3.231.244-.697.032-1.395.106-2.056.276-.941.242-1.854.464-2.773.838-1.047.426-2.057.833-3.073,1.314-.682.323-1.314.635-2.023.91-.594.23-1.324.506-1.824.931-.505.429-.934.954-1.353,1.453-.464.553-1.162.957-1.646,1.52-.558.649-1.111,1.295-1.738,1.881-.272.254-.577.47-.812.762-.161.201-.296.513-.636.293-.735.049-1.751-.034-2.472.278-.18.078-.312.161-.505.226-.334.113-.639.263-.99.433-1.038.501-1.88,1.277-2.699,2.075-.344.335-.631.706-.942,1.07-.354.413-.786.741-1.147,1.141-1.451,1.613-2.83,3.31-4.345,4.864-.797.817-1.627,1.601-2.342,2.494-.93,1.159-1.733,2.34-2.505,3.611-1.764,2.909-3.032,6.196-4.218,9.378-.494,1.324-.821,2.758-1.193,4.123-.387,1.42-.489,2.874-.799,4.303-.294,1.353-.57,2.701-.64,4.078-.044.862-.935,1.485-1.365,2.198-.396.656-.722,1.356-1.16,1.985-.393.563-.854,1.074-1.196,1.671-.922,1.607-2.252,2.991-3.285,4.532-.74,1.103-1.7,2.126-2.359,3.272-.141.245-.571.867-.536,1.137.288-.114.419-.42.606-.647.665-.811,1.403-1.587,2.173-2.297,1.061-.979,2.166-1.913,3.204-2.916.878-.849,1.553-1.881,2.532-2.622.633-.479,1.169-1.128,1.877-1.504.12.142.095.437.124.635.056.385.086.77.184,1.146.209.802.685,1.549,1.008,2.312.529,1.247,1.267,2.433,1.722,3.704.247.69.214,1.435.395,2.141.279,1.09.987,2.244,1.558,3.201.482.809.954,1.661,1.587,2.374.571.644,1.101,1.301,1.625,1.992.192.253.75.767.732,1.091-.016.288-.547.796-.705,1.035-.507.772-.93,1.493-1.208,2.376-.349,1.108-.423,2.306-.541,3.458-.132,1.295-.171,2.643-.207,3.944-.069,2.535.003,5.064.176,7.59.037.541.111.853.494,1.261.214-.234.268-.779.328-1.08.232-1.174.381-2.36.631-3.532.439-2.056.75-4.167.757-6.272.005-1.524-.286-3.236.199-4.722.239-.732.39-1.278,1.077-1.598.493-.229.658-.348,1.133-.089,1.252.683,2.906.032,4.228-.15.694-.095,1.39-.198,2.075-.348.729-.16,1.392-.529,2.133-.698.856-.196,1.755-.374,2.628-.452.356-.032.665.006,1.018-.077.392-.092.781-.147,1.179-.206,1.385-.204,2.796-.204,4.18-.025.676.088,1.363.389,1.927.764.249.166.792.933,1.053.904,0,0-.309.004-.383-.05,1.199,1.136,2.522,2.452,3.943,3.352.986.625,1.785,1.513,2.658,2.29.473.421,1.014.751,1.515,1.136.515.397.967.844,1.54,1.16.5.276,1.009.535,1.503.821.312.18.8.315,1.021.604-.032-.383-.386-.793-.575-1.1-.548-.887-1.077-1.801-1.669-2.66-.602-.873-1.308-1.655-1.958-2.491-.436-.561-.819-1.085-1.317-1.588-.221-.224-.394-.423-.559-.683-.103-.162-.387-.452-.363-.64.286-.09.86.204,1.126.308,1.091.424,2.159,1.035,3.174,1.617.933.535,1.823,1.141,2.752,1.685.95.557,1.905,1.06,2.877,1.574,4.728,2.498,9.351,5.204,14.024,7.802,2.213,1.23,4.512,2.283,6.867,3.203,2.197.858,4.609,1.174,6.91,1.646,1.755.36,3.697.357,5.484.254.597-.034,1.211-.062,1.804-.142.401-.054.92-.079,1.219-.394.138-.145.168-.312.236-.496.307-.828.792-1.566,1.198-2.35.189-.364.321-.613.435-.991.07-.231.237-.695.358-1.006Z"/>
</svg>