<?xml version="1.0" encoding="UTF-8"?>
<svg id="Layer_20" xmlns="http://www.w3.org/2000/svg" viewBox="0 0 200.224 179.541">
  <ellipse cx="100.112" cy="95.742" rx="67" ry="65" fill="none" stroke="#fff" stroke-miterlimit="10"/>
  <path d="M143.203,45.939c-8.599,6.08-15.713,14.243-20.561,23.592-1.433,2.763-2.669,5.623-3.808,8.519-2.425,6.163-4.442,12.806-3.317,19.333.157.909.378,1.82.819,2.631.516.949,1.307,1.715,2.085,2.465,2.284,2.201,4.568,4.401,6.852,6.602,2.404,2.316,4.841,4.657,7.749,6.296,2.019,1.138,4.225,1.912,6.471,2.484,4.796,1.222,9.823,1.533,14.28,1.572l-4.567.285c1.236.016,2.472.031,3.708.047-4.899.194-9.818-.123-14.651-.943-2.071-.352-4.142-.8-6.071-1.634-3.966-1.716-7.549-5.091-11.858-4.765-2.347.177-4.483,1.482-6.18,3.113-1.164,1.119-2.176,2.417-2.826,3.895-1.305,2.967-1.056,6.355-1.053,9.621.026.022.052.043.255-.098-1.969-1.458-3.937-2.915-5.802-4.269-2.363-1.754-4.739-3.519-6.776-5.644-1.338-1.396-2.53-2.947-4.054-4.137-1.865-1.457-4.133-2.297-6.407-2.955-7.577-2.192-15.701-2.569-23.402-.865-6.54,1.447-12.657,4.336-18.711,7.203-.302.143-.576.647-.215.726-.696-1.411-.218-3.103.385-4.556,1.236-2.978,3.028-5.821,5.653-7.694,1.626-1.159,3.511-1.905,5.419-2.495,7.921-2.449,16.408-2.373,24.47-4.307-.35-.671-1.231-.812-1.985-.873-3.526-.286-7.051-.572-10.577-.858-2.001-.162-4.012-.325-6.012-.163-1.853.149-3.67.574-5.498.912-2.954.545-5.949.864-8.951.952,1.916-.889,4.047-1.174,6.102-1.663,3.293-.784,6.453-2.12,9.31-3.936,1.4-.89,2.794-1.98,3.374-3.533-.163.084-.326.168-.548.337-7.048-1.06-14.215-1.321-21.321-.777.374-1.672,1.839-2.899,3.401-3.602s3.273-1.005,4.88-1.597c1.524-.562,2.951-1.382,4.513-1.829,1.492-.427,3.059-.5,4.611-.532,4.648-.095,9.34.158,13.837,1.335s8.812,3.323,12.081,6.629c-.066-.06-.132-.121-.201-.166,1,1.159,2.912,1.103,4.202.279s2.097-2.211,2.815-3.563c2.898-5.46,5.161-11.25,8.281-16.586,3.667-6.273,8.502-11.86,14.183-16.39,3.62-2.886,7.624-5.366,12.03-6.788,1.747-.564,3.548-.958,5.402-1.167,2.588-.542,5.374-1.067,8.185-.44Z" fill="#fff" stroke="#fff" stroke-dasharray="0 0 0 0 0 0" stroke-miterlimit="10"/>
</svg>