<?xml version="1.0" encoding="UTF-8"?>
<svg id="Layer_22" xmlns="http://www.w3.org/2000/svg" viewBox="0 0 200.224 179.541">
  <defs>
    <style>
      .cls-1 {
        fill: #fff;
        stroke-dasharray: 0 0 0 0 0 0;
      }

      .cls-1, .cls-2 {
        stroke: #fff;
        stroke-miterlimit: 10;
      }

      .cls-2 {
        fill: none;
        stroke-width: 10px;
      }
    </style>
  </defs>
  <ellipse class="cls-2" cx="99.476" cy="95.742" rx="67" ry="65"/>
  <path class="cls-1" d="M151.301,83.774c1.192.809,2.409,1.641,3.262,2.804s1.284,2.738.732,4.07c-.998,2.409-4.28,2.643-6.873,2.361-23.016-2.507-44.699-14.993-67.81-13.627-2.916.172-6.338.37-8.209-1.873,1.716-.497,3.688-1.237,4.185-2.953.24-.828.066-1.716-.159-2.548-.811-3-2.357-5.911-4.868-7.742s-6.099-2.364-8.768-.771c-3.043,1.816-4.101,5.639-4.9,9.091-.888,3.838-1.76,7.95-.347,11.627,2.205,5.74,9.444,8.958,10.16,14.947.344.727.223,1.681-.373,2.222-.293.266-.668.419-1.035.569-1.451.593-2.898,1.224-4.205,2.091s-2.476,1.988-3.202,3.378c-.091.175-.178.363-.171.561s.135.405.33.436c.261.042.498-.231.757-.18.056.213.112.427.169.64.044.168.234.374.403.27.431.094.846-.18,1.211-.427.443-.3.9-.579,1.369-.838.308-.17.639-.349.798-.662.038-.076.067-.16.127-.221.135-.136.363-.095.543-.161.192-.07.314-.255.477-.378.123-.094.269-.152.415-.205.844-.307,1.735-.482,2.632-.516.673-.026,1.42.002,1.925-.444.243-.214.394-.512.539-.803.196-.393.392-.785.587-1.178.095-.191.193-.393.236-.623,1.659,1.046,3.414,1.94,5.236,2.666.6.239,1.216.465,1.733.852-.992.664-1.52,1.839-1.799,3-.224.932-.319,1.906-.163,2.851s.578,1.863,1.269,2.416c.261.225.686.16.945-.066s.382-.572.447-.91c.091-.479.087-.975-.014-1.452-.077-.365-.209-.717-.287-1.082-.211-.988-.002-2.058.566-2.893s1.486-1.424,2.542-1.365c1.28.073,2.542.431,3.67,1.039-.386.604-.331,1.378-.269,2.092.408,4.702.52,9.43.337,14.146-.047,1.216-.116,2.442-.445,3.614s-.942,2.297-1.628,3.098c-1.84.918-2.544,3.13-3.787,4.768-2.592,3.417-7.495,4.252-10.434,7.376,1.704.559,3.547.382,5.338.302,2.731-.123,5.466-.007,8.197.109.83-3.126,2.382-6.058,4.5-8.502.722-.833,1.515-1.619,2.075-2.569,1.152-1.956,1.179-4.347,1.231-6.616s.208-4.684,1.545-6.518c.759-1.04,1.846-1.81,2.577-2.869.541-.783.865-1.692,1.025-2.399,3.233.514,6.54.566,9.788.153-.201.925.857,1.564,1.156,2.462,2.255,6.778,8.302,8.262,12.723,12.102-1.417,1.92-2.791,2.157-3.865,3.614-1.548,2.099-4.347,3.296-5.344,5.705-1.138,2.749-3.219,4.084-3.199,6.692,2.942-.041,7.588.363,8.575-.624,2.226-5.241,6.282-9.483,11.362-12.394.621-.356,1.273-.698,1.735-1.244s.69-1.364.339-1.988c-.147-.261-.377-.462-.603-.658-2.968-2.573-5.936-5.146-8.904-7.719-3.49-4.766-3.835-9.672-5.96-11.296,4.996-.334,9.034-4.065,13.688-5.911,7.567-3.002,16.182-.844,24.191-2.3,1.697-.308,3.36-.779,5.02-1.248.879-.249,1.774-.504,2.54-1.003.739-.481,1.324-1.167,1.8-1.909.948-1.478,1.495-3.269,1.228-5.005-.395-2.566-2.427-4.536-4.426-6.192-1.168-.968-2.393-1.916-3.82-2.432s-3.106-.543-4.385.273c1.184.533,2.368,1.067,2.016.917Z"/>
</svg>