<?xml version="1.0" encoding="UTF-8"?>
<svg id="Layer_23" xmlns="http://www.w3.org/2000/svg" viewBox="0 0 200.224 179.541">
  <ellipse cx="100.112" cy="89.771" rx="67" ry="65" fill="none" stroke="#fff" stroke-miterlimit="10" stroke-width="10"/>
  <path d="M39.438,104.802c4.77-.426,9.553-.696,14.341-.809.084,2.697.756,5.346.901,8.04s-.326,5.598-2.168,7.57c-.235.252-.494.491-.656.796-.624,1.177.436,2.49,1.253,3.542,1.065,1.372,1.836,2.991,3.125,4.155,1.621,1.463,3.896,2.029,6.08,1.992s4.317-.617,6.424-1.193c.456-.125,1.004-.358,1.027-.83.01-.202-.088-.392-.191-.566-.545-.916-1.309-1.679-1.949-2.531-1.854-2.469-2.609-5.732-2.03-8.764.106-.554.286-1.147.752-1.464.279-.19.623-.253.95-.336,2.955-.752,5-3.365,6.813-5.817,1.498.838,3.588.158,4.933,1.225.57.452.89,1.141,1.19,1.803.532,1.175,1.065,2.351,1.597,3.526.411.908.83,1.849.835,2.846.012,2.268-2.014,3.928-3.276,5.812-.193.288-.377.614-.349.96.028.338.252.624.467.887.764.935,1.527,1.869,2.291,2.804,1.306,1.598,2.882,3.334,4.945,3.373,1.766.033,3.36-1.306,4.014-2.947s.504-3.505.011-5.201c.179-.028.357-.057.5-.023,1.168-1.574,1.285-3.678,1.19-5.635s-.351-3.967.225-5.84c.834-2.714,3.466-4.728,6.294-4.99,3.104-.287,6.35,1.598,7.43,4.522.598,1.618.559,3.437,1.292,4.999.818,1.745,2.474,2.92,4.106,4.099,2.391,2.015,4.598,4.249,6.583,6.664.415.505.832,1.029,1.391,1.37.627.383,1.375.501,2.101.612,2.812.428,5.645.856,8.486.737.311-.013.661-.052.854-.297.126-.16.154-.373.174-.576.093-.925.106-1.883-.205-2.759-.337-.948-1.024-1.724-1.724-2.446-2.252-2.323-4.793-4.353-7.026-6.694s-4.19-5.079-4.921-8.23c-.649-2.797-.268-5.821,1.055-8.369.196-.378.417-.752.733-1.038.258-.233.57-.399.894-.524,1.474-.569,3.25-.262,4.447.769,0,0,.18.039.257.046,2.907.922,6.054.834,9.054.285,2.242-.411,4.505-1.108,6.257-2.566,1.011-.842,1.871-2.131,1.537-3.404-.772.204-1.544.409-2.315.613-.353.094-.726.187-1.08.096-.672-.174-1.007-1.101-.602-1.664.181-.251.461-.413.663-.647.28-.323.411-.782.772-1.012.365-.233.861-.147,1.225.087s.627.591.895.931c.125.159.264.323.458.382s.448-.046.47-.247c.229.094.485.125.729.086-.059-1.08-.006-2.162.047-3.242.029-.585.058-1.169.086-1.754.039-.784.08-1.581.247-2.425.031-2.2-.998-4.392-2.711-5.773.561-.931,1.413-1.642,2.164-2.429s1.435-1.729,1.515-2.813c-.586-.356-1.359-.22-1.96.109s-1.092.826-1.648,1.226c-.85.613-1.842.994-2.821,1.368-1.019.39-2.096.787-3.117.92l-.688-1.415c3.116-1.916,4.889-5.354,6.673-8.547,1.057-1.892,2.204-3.886,2.127-6.051-2.018,2.432-5.044,3.761-7.507,5.742-1.023.822-1.949,1.759-2.977,2.575s-2.183,1.521-3.47,1.781-2.723.016-3.45-.861c-.272.071-.563-.076-.741-.292s-.266-.492-.343-.762c-1.425-4.99-.685-10.566-3.026-15.197-.224,3.628-.903,7.227-2.016,10.687-.566,1.761-1.262,3.516-2.421,4.957-.363-.121-.755.005-1.123.109-1.911.542-3.99.475-5.658.024-11.013-1.852-20.274-10.616-31.437-10.953-6.862-.207-13.525,2.932-18.657,7.49-4.087,3.63-7.318,8.113-11.135,12.027-3.817,3.913-8.5,7.368-13.922,8.062.765,6.039,1.53,12.079,2.294,18.118.865-.916,2.191-1.374,2.145-.891Z" fill="#fff" stroke="#fff" stroke-dasharray="0 0 0 0 0 0" stroke-miterlimit="10"/>
</svg>