<?xml version="1.0" encoding="UTF-8"?>
<svg id="Layer_9" xmlns="http://www.w3.org/2000/svg" viewBox="0 0 200.224 179.541">
  <ellipse cx="105.871" cy="89.771" rx="67" ry="65" fill="none" stroke="#fff" stroke-miterlimit="10" stroke-width="10"/>
  <path d="M45.024,99.324c2.57.367,5.096.751,7.689.747,1.469-.003,2.905.127,4.368.238,3.688.28,7.394.815,11.099.408,3.498-.384,6.927-1.063,10.461-.971,1.156.03,2.465.129,3.605.347,1.03.197,1.896.336,2.69,1.04.711.631,3.104,1.994,2.077,3.183-.529.612-1.544,1.07-1.876,1.838-.125.288-.051.576-.209.854-.212.373-.61.72-.862,1.083-.607.878-1.059,1.556-1.369,2.58s-.629,2.048-.961,3.062c-.223.681-.471,1.383-.768,2.026-.14.302-.349.489-.52.772-.183.302-.217.652-.312.983-.337,1.166-1.029,1.813-.165,2.944,1.069,1.4,2.604,1.552,4.171,2.026.676.204,1.227.253,1.921.328.498.053,1.339.203,1.54-.485.082-.281-.133-.889-.209-1.166-.15-.549-.452-.938-.751-1.429-.681-1.121-.5-2.255-.662-3.524-.185-1.449.708-2.013,1.624-3.012.324-.354.674-.521,1.089-.742.656-.349,1.101-.765,1.686-1.206s1.07-1.115,1.702-1.478c.685-.393,1.756-.686,2.538-.822.731-.128,1.677-.072,2.395.081.466.099,1.028.2,1.386.534.369.343.364.766.511,1.211.232.703.498,1.594.881,2.22.5.817,1.062,1.506,1.369,2.439.346,1.053.46,2.069,1.096,3.006.397.584.723,1.192,1.033,1.828.348.714.55.89,1.276,1.145.837.293,1.732.76,2.594.95,1.24.272,2.537-.633,3.766-.624.256.002.659.075.903.002.719-.215.044-.818-.314-1.172-.768-.762-1.512-1.209-2.439-1.735-.638-.362-1.079-.739-1.516-1.307-1.152-1.499-.279-3.719-.431-5.443-.074-.837-.38-1.658-.321-2.508.028-.407.226-1.51.7-1.669.334-.112,1.039.277,1.399.345,1.004.19,2.021.146,3.031.274.587.074,1.169.317,1.701.558.75.34,1.155.588,1.389,1.357.336,1.102.277,2.244.721,3.322.389.944.805,1.748,1.283,2.632.881,1.63,1.866,3.235,2.993,4.709.398.521.706,1.026,1.407,1.15.906.161,1.85-.087,2.755-.09.721-.003,1.272-.268,1.969-.323.589-.046,1.445.013,1.99-.232,1.201-.539-.975-1.922-1.451-2.11-.651-.258-1.43-.436-1.931-.953-.577-.596-.675-1.363-.87-2.133-.48-1.892-1.077-3.673-1.073-5.639.001-.67-.06-1.302-.112-1.955-.047-.595.226-.882.808-1.016,1.047-.241,1.978.352,2.724,1.023.674.607,1.424,1.21,2.193,1.699.787.5,1.749.828,2.487,1.373.571.422,1.102.879,1.714,1.256.567.349.749.49.752,1.172.004.973-.032,1.764.372,2.664.268.597.597,1.15.851,1.753.222.529.467,1.243.992,1.563.471.287,1.149.257,1.684.26.811.004,1.423-.337,2.186-.436.666-.086,1.617-.045,2.225.213.069-.467-.002-.788-.256-1.182-.485-.752-.975-1.382-1.172-2.274-.16-.726-.5-1.647-.377-2.385.091-.547.327-.942.18-1.53-.474-1.899-2.684-2.761-4.004-3.936-.687-.611-1.279-1.371-1.936-2.025-.392-.39-.856-.796-1.119-1.276-.217-.397-.364-.598-.039-.935.502-.52,1.561-.407,2.206-.326.545.068,1.079.156,1.625.008.659-.178,1.212-.346,1.918-.352,1.286-.01,2.552-.049,3.819-.288.919-.174,1.682-.536,2.554-.834.877-.299,1.758-.785,2.634-1.018.83-.221,1.552-.338,2.395-.443.742-.092,1.558-.277,2.259-.537,1.082-.401,2.018-1.158,2.882-1.894.959-.818.513-1.691-.542-2.137-1.004-.424-2.123-.526-3.203-.536-.787-.007-1.56-.109-2.34-.104-2.555.016-5.151-.447-6.356-2.931-.552-1.139-1.844-2.718-3.21-2.625-.828.056-1.784.523-2.287,1.207-.308.418-.365.889-.954,1.02-.422.094-.737-.169-.752-.614-.024-.751.999-1.309,1.555-1.597,1.569-.812,1.948-2.739.692-4.165-1.108-1.257-2.537-.625-3.501.521-.529.63-.875,1.43-1.443,2.028-.586.616-1.271,1.266-2.019,1.675-.252-.299-.456-.399-.345-.807.113-.417.596-.828.801-1.224.347-.669.716-1.349,1.05-2.02.237-.477.428-1.02.601-1.523.244-.711.499-1.451.702-2.182.174-.627.318-1.245.315-1.892-.001-.347.155-1.191-.058-1.473-.218-.291-.931-.156-1.251-.155-.844.003-1.608-.077-2.442-.189-.452-.061-1.051-.019-1.456-.213.116-.001.268-.047.39-.037.12-.456-.406-1.105-.571-1.507-.428-1.04-1.004-2.254-1.136-3.382.097.454-.292.676-.534.977-.471.586-.731,1.291-1.242,1.868-.326.368-.676.688-1.069.978.091-.009.202.032.292.03-.124.39-1.521.577-1.902.499-.048-.248-.02-.504.199-.944-.34-2.027-.626-4.082-1.153-6.073-.223-.843-.441-1.818-.539-2.68-.104-.915-.216-1.627-.871-2.351-.415-.459-.685-1.073-1.386-.955-.537.091-.5.343-.656.954-.185.725-.359,1.453-.509,2.186-.09.439-.097,1.289-.532,1.543-.045-.247-.012-.498.085-.722-.36,0-.79.087-1.177.116-.502.039-1.341-.083-1.773.168.629.201-.401-2.01-.432-2.065-.635-1.121-1.599-2.032-1.747-3.318-.464.148-.782.61-1.084.949-.75.839-1.88,1.703-2.342,2.734.068-.085.129-.14.203-.213-.259.263-.502.581-.814.761-.958-1.285-2.691-2.558-4.051-3.357-.962-.566-1.927-.939-2.779-1.683-.447-.39-.871-.745-1.275-1.129-.154-.146-.564-.395-.745-.44-.372.622-.684,3.965-1.412,3.951-.078-.054-.104-.122-.077-.207.058-.026.117-.029.177-.012-.521-.188-1.064-.298-1.601-.433-1.655-.416-3.243-1.033-4.889-1.469-.305-.081-1.287-.576-1.603-.362-.093.243-.131.497-.114.761-.042.571-.152,1.129-.328,1.674-.188.651-.446,1.311-.626,1.956-.101.361-.014.507.012.847.023.295-.106.962-.352,1.164-.191.156-.097.102-.405.122-.482-.088-.96-.194-1.435-.318-.913-.238-1.826-.476-2.739-.713-1.031-.238-1.94-.275-2.969-.349-.34-.024-.527-.103-.77-.214-.553-.253-1.022-.291-1.654-.333.777,1.374-.256,3.766,1.239,4.734-.096.226-.462.323-.708.399-.801.244-1.928.207-2.737.269-1.246.096-2.493.112-3.741.161-.368.015-.672.082-1.038.1-.27.013-1.042-.009-1.235.207.569.918,1.783,1.795,2.639,2.445.306.232.563.345.734.722.267.59-.001.646-.371,1.059-.331.37-.416.843-.708,1.234-.196.262-.454.373-.425.732-.262-.307-.762-.39-1.171-.45-.663-.099-1.343-.078-2.011-.077-.385,0-1.651-.206-1.991.08.303.064.23.202.266.426.046.278-.114.7-.141.99-.049.529-.05,1.072-.15,1.595-.114.592-.46,1.09-.595,1.666-.075.322.018.721-.19,1.002-.334-.293-.218-.429-.81-.506-.629-.081-1.423-.114-2.042,0,.132.172.118.377.114.607-.024,1.295-.691,2.591-1.205,3.761-.105.24-.283.56-.401.73-.139.201-.211.478-.521.413-.011-.059-.021-.119-.028-.179-.482-.085-.993.047-1.467.106-.008.059-.021.118-.037.175-.057.016-.116.028-.175.037-.06.37.074.756.095,1.135.051.923-.073,1.774-.541,2.577-.245.421-.571.798-.69,1.284-.062.253-.03.491-.078.739-.334-.11-.616-1.43-.69-1.626-.318-.846-.673-1.676-1.031-2.506-.18-.417-.363-1.154-.667-1.514-.166-.197-.49-.262-.589-.508.056.943-.009,2.011-.262,2.915-.07.251-.901,1.591-.171,1.561.011.109.05.261.024.371-.041-1.079-1.237-2.555-1.728-3.339-.87-1.391-1.918-3.478-3.418-4.302.123,1.624.347,3.207.61,4.822.115.708.147,1.363.37,2.02.071.208.097.343.116.586-1.067-.587-3.037-.9-4.175-.482-.729.268-1.374.718-2.13.73-.938.015-1.952-.124-2.868.022-.076.181-.172.32-.112.521.097.323,1.099.826,1.274.925.611.348,1.265.719,1.908,1.01.827.375,1.864.51,2.559,1.023-.162.035-.332.02-.494.045.087.042.17.13.257.171-.542.09-1.12.129-1.676.128-.124.079-.256.153-.395.219.261-.027.57.245-.459.208Z" fill="#fff" stroke="#fff" stroke-dasharray="0 0 0 0 0 0" stroke-miterlimit="10"/>
</svg>