<?xml version="1.0" encoding="UTF-8"?>
<svg id="Layer_12" xmlns="http://www.w3.org/2000/svg" viewBox="0 0 200.224 179.541">
  <ellipse cx="102.509" cy="92.474" rx="67" ry="65" fill="none" stroke="#fff" stroke-miterlimit="10" stroke-width="10"/>
  <path d="M78.015,128.947c.031.039.027.065-.012.077-.163-.195-.189-.021-.344-.041-.15-.02-.309-.072-.448-.133-.321-.139-.571-.378-.8-.632-.384-.426-.643-.894-.921-1.397-.401-.727-.844-1.432-1.111-2.219-.396-1.167-.968-2.296-1.269-3.493-.346-1.375-.899-2.655-1.416-3.97-.456-1.161-1.053-2.209-1.64-3.305-.301-.562-.427-1.189-.729-1.751s-.593-1.12-.852-1.709c-.279-.634-.672-1.216-.929-1.857-.194-.485-.328-.996-.488-1.493-.307-.957-.666-1.892-.968-2.85-.188-.595-.462-1.144-.709-1.716-.258-.599-.364-1.241-.583-1.854-.46-1.291-.88-2.61-1.438-3.859-.302-.675-.487-1.407-.708-2.113-.175-.56-.382-1.104-.492-1.682-.205-1.079-.256-2.193-.386-3.283-.146-1.213-.109-2.407-.135-3.624-.034-1.615-.007-3.258.106-4.87.139-1.987.575-3.905.919-5.859.211-1.2.743-2.322.995-3.511.265-1.249.899-2.513,1.529-3.619.546-.957,1.073-1.957,1.699-2.864.554-.802,1.062-1.714,1.7-2.45s1.228-1.491,1.846-2.239c.886-1.073,1.554-2.303,2.552-3.265,1.219-1.177,2.75-1.953,4.076-3.001.861-.681,1.843-1.18,2.806-1.701,1.047-.566,2.213-.898,3.396-1.007.732-.067,1.451-.051,2.184-.059.746-.007,1.476-.134,2.216-.208,1.91-.191,3.768.042,5.667.182,2.504.184,4.931.573,7.382,1.091,1.899.401,3.91.654,5.648,1.563.776.405,1.472.936,2.21,1.403.524.332,1.093.641,1.584,1.022.505.392,1.175.942,1.289,1.609.112.654-.222,1.253-.432,1.84-.261.727-.571,1.37-1.061,1.982-.466.581-.971,1.162-1.457,1.725-.36.416-.826.818-1.303,1.092-.417.24-.904.466-1.262.786-.107.096-.239.258-.234.394.643.2,1.256.292,1.923.386.677.095,2.419.012,2.389,1.074-.004.145-.068.252-.053.422.016.188.067.345-.009.533-.162.401-.658.799-.996,1.058-.474.363-.963.705-1.414,1.096-1.031.894-2.346,1.675-3.58,2.258-.895.423-1.735.946-2.628,1.373-.851.407-1.708.805-2.556,1.217-2.378,1.156-4.811,2.192-7.238,3.24-1.017.439-2.088,1.005-3.186,1.2-.817.145-1.666.062-2.474.209-1.558.283-3.381,1.182-4.257,2.533-.512.79-.864,1.743-1.159,2.628-.124.373-.298.728-.429,1.098-.174.494-.13.962-.055,1.468.179,1.208.791,2.262,1.317,3.352.253.524.618,1.002.896,1.516.27.498.566,1.019.954,1.434.36.385.772.716,1.127,1.108.293.324.579.629.922.898.368.287.773.505,1.185.722.441.232.942.266,1.409.426.911.312,1.822.331,2.767.425,1.059.105,2.096.193,3.16.21,1.579.025,3.178.119,4.751.257.864.076,1.739.168,2.599.278.9.115,1.774.357,2.671.488,3.542.516,6.934,1.882,10.187,3.329.453.201.864.474,1.307.691.463.227.957.379,1.429.586.708.31,1.399.663,2.081,1.026,1.268.675,2.53,1.355,3.812,2.003.612.31,1.209.645,1.839.917.595.256,1.101.631,1.661.947,1.11.625,2.372,1.093,3.586,1.468,2.04.63,4.292.927,6.42.981,1.338.034,2.627.218,3.97.144,1.122-.062,2.259-.013,3.382-.045,2.369-.067,4.753.005,7.095-.413,1.265-.226,2.546-.393,3.802-.682,1.211-.279,2.401-.647,3.6-.969,1.691-.454,3.347-1.079,5.515-2.314-.295,1.575-.636,3.089-1.052,4.627-.217.802-.417,1.564-.768,2.329-.635,1.385-1.237,2.778-1.828,4.184-.542,1.291-1.123,2.537-1.727,3.803-.997,2.091-1.981,4.383-3.676,6.031-1.57,1.525-3.632,2.143-5.731,2.525-.379.069-.765.106-1.141.189-.596.131-1.066.435-1.611.684-.938.428-1.979.847-2.748,1.552-1.205,1.105-1.892,2.677-1.867,4.306.01.672-.046,1.467-.379,2.049-.408.712-.866,1.41-1.303,2.107-.515.822-1,1.586-1.751,2.213-.978.815-1.915,1.544-3.024,2.159-1.849,1.024-3.581,2.091-5.629,2.677-.69.197-1.266.194-1.933-.063-.809-.311-1.379-1.006-2.222-1.278-.648-.209-1.273-.479-1.918-.694-.851-.285-1.78-.369-2.673-.419-.813-.046-1.595-.246-2.416-.284-.913-.042-1.979.4-2.687,1.005-.492.421-.717.847-.67,1.506.058.818.692,1.451,1.099,2.113.086.14.454.883.21,1.042-.146.095-.924-.118-1.107-.107-1.519.095-2.836.792-4.312,1.136-1.154.269-2.241.771-3.414.952-1.383.214-2.768.276-4.147.482-1.617.242-3.37.325-5.008.319-1.534-.005-3.109-.132-4.617-.426-1.032-.201-2.268-.291-3.196-.813-.54-.304-1.438-.862-1.445-1.56-.003-.275.191-.481.245-.744.064-.313-.008-.693-.059-1.004-.081-.486-.194-.848-.442-1.278-.278-.481-.432-.528-.934-.496-.198.013-.689.11-.862-.021-.231-.053-.528.112-.757.137-.217.024-.437.018-.662.024-.306.009-.609.037-.909.003-.499-.055-.859-.164-1.361.033-.306.12-.601.338-.932.408-.52.109-1.111.069-1.64.073-1.117.008-2.477-.369-3.46-.889-.469-.248-1.003-.481-1.428-.799-.486-.365-.785-.873-1.101-1.377-.488-.776-.851-1.545-.687-2.462.117-.654.206-1.311.259-1.972.061-.753.222-1.483.31-2.233.11-.933.252-1.807.601-2.681.354-.887.752-1.766,1.218-2.595.364-.647.777-1.259,1.147-1.901.186-.324.31-.69.499-1.006.121-.201.286-.47.345-.693.129-.483-.19-1.179-.097-.576Z" fill="#fff" stroke="#fff" stroke-dasharray="0 0 0 0 0 0" stroke-miterlimit="10"/>
</svg>