<?xml version="1.0" encoding="UTF-8"?>
<svg id="Layer_17" xmlns="http://www.w3.org/2000/svg" viewBox="0 0 200.224 179.541">
  <defs>
    <style>
      .cls-1 {
        fill: #fff;
        stroke-dasharray: 0 0 0 0 0 0;
      }

      .cls-1, .cls-2 {
        stroke: #fff;
        stroke-miterlimit: 10;
      }

      .cls-2 {
        fill: none;
        stroke-width: 10px;
      }
    </style>
  </defs>
  <ellipse class="cls-2" cx="102.463" cy="95.742" rx="67" ry="65"/>
  <path class="cls-1" d="M164.836,104.759c-1.157.199-2.294.46-3.47.393-.402-.023-.805-.05-1.207-.072-.684-.036-1.355-.127-2.034-.142-.69-.016-1.436-.249-2.108-.396-.911-.2-1.75-.482-2.611-.849-2.31-.985-4.611-2.23-6.29-4.128-1.391-1.573-2.929-3.008-4.301-4.603-.368-.428-.803-.788-1.168-1.216-.336-.394-.622-.826-.967-1.215-.693-.781-1.28-1.66-2.023-2.393-2.067-2.041-4.137-4.058-6.555-5.685-1.167-.785-2.426-1.519-3.668-2.178-1.55-.822-3.224-1.341-4.924-1.749-1.317-.317-2.686-.255-4.031-.243-1.111.01-2.21.041-3.316.13-1.877.151-3.725.451-5.614.308-.915-.069-1.763-.289-2.657-.489-.842-.189-1.789-.347-2.557-.743-1.167-.603-2.476-1.407-3.361-2.378-.638-.7-1.445-1.254-2.144-1.894-.856-.784-1.778-1.523-2.658-2.281-.765-.66-1.581-1.255-2.376-1.877-.984-.77-1.995-1.328-3.105-1.893-1.594-.812-3.249-1.502-4.951-2.048-1.44-.462-2.937-.599-4.443-.561-1.569.04-3.217.143-4.766-.179-1.211-.252-2.457-.995-3.708-.93-.556.029-1.094.058-1.542.414-.395.314-.678.695-.963,1.104-.333.478-.569,1.323-1.18,1.521-.352.114-.948.06-1.323.056-.855-.008-1.718.124-2.576.156s-1.72.013-2.582-.001c-1.047-.017-2.089.085-3.133.148-1.548.094-3.273.28-4.384,1.489-.448.488-.917.97-1.213,1.571-.153.312-.304.722-.312,1.079-.007.352.188.574.333.875.218.451.335.791.884.857.238.029.259.064.479.121,2.01.517,4.05-.021,6.074.075.755.036,1.501.175,2.256.223.822.052,1.644.086,2.463.173,1.715.184,3.446.071,5.147.378.787.142,1.58.159,2.377.202.833.045,1.641.195,2.466.309,1.752.242,3.533.354,5.292.559,1.522.178,3.001.449,4.508.709,1.457.252,2.946.69,4.26,1.389,1.178.627,2.342,1.41,3.373,2.255,1.344,1.1,2.769,2.166,4.009,3.38,2.028,1.986,3.971,4.066,5.968,6.086.437.441.928.928,1.26,1.455.337.535.395,1.065.454,1.673.06.62.29,1.219.375,1.838.118.857.038,1.747.013,2.608-.012.43-.127.835-.192,1.257-.081.524-.052,1.05-.084,1.577-.065,1.093-.158,2.23-.425,3.294-.41,1.633-.962,3.23-1.445,4.842-.183.609-.39,1.236-.61,1.834-.236.644-.606,1.213-.902,1.829-.28.581-.539,1.318-.608,1.964-.067.624-.034,1.249-.105,1.875-.082.719.166,2.363,1.011,2.638.347.113.782-.2,1.035-.425.308-.273.436-.629.66-.968.161-.245.372-.473.516-.728.189-.334.363-.803.443-1.176.137-.631.344-1.109.634-1.687.305-.609.444-1.272.641-1.919.203-.67.604-1.238.85-1.887.214-.565.297-1.182.552-1.727.161-.345.408-.63.617-.945.156-.236.256-.626.475-.79,0,.599-.152,1.193-.196,1.79-.079,1.064.048,2.144.098,3.209.027.57.075,1.176.05,1.751-.022.499-.135.981-.188,1.477-.094.881.188,1.594.277,2.456.074.714-.135,1.408-.206,2.111-.06.594.045,1.175.066,1.768.034.993.2,2.038.079,3.027-.058.471.033.901.034,1.369,0,.199-.052.32-.086.512-.036.205.011.379.013.584.002.258-.013.572-.19.775-.242.279-.696.326-.978.587-.651.604-1.486.976-2.098,1.617-.496.52-1.322,1.084-1.308,1.886.006.329.076.641.037.973-.042.359.018.553.115.907.202.737.097,1.554-.199,2.251-.082.194-.164.403-.271.58-.218.36-.519.419-.945.501-.466.09-.816.093-1.142.475-.29.341-.451.734.053.953.577.251,1.524-.017,2.102-.159.396-.097.797-.21,1.208-.193.508.02,1.007.137,1.518.149.537.012,1.079-.1,1.61-.096.178.001.415.088.578.068.191-.024.179-.051.257-.197.126-.237.162-.528.288-.772.187-.361.363-.726.569-1.075.149-.253.19-.439.217-.725.03-.321.169-.549.302-.837.174-.378.333-.722.57-1.065.279-.403.64-.714.935-1.101.515-.674,1.096-1.296,1.608-1.972.709-.936,1.252-1.806,1.573-2.952.287-1.024.453-2.156.59-3.211.072-.551.084-1.096.075-1.649-.012-.782.113-1.537.155-2.316.044-.824-.126-1.581-.164-2.395-.031-.667.022-1.334.005-2.002-.034-1.298-.152-2.632-.078-3.929.061-1.069.123-2.197.549-3.192.196-.459.303-.817.839-.536.846.443,1.379,1.667,1.789,2.469.333.651.692,1.246,1.332,1.632.76.458,1.88.735,2.757.871.941.146,1.937.219,2.879.061,1-.168,1.974-.518,2.956-.769.773-.198,1.697-.321,2.402-.721.313-.178.562-.424.83-.662-.075.46-.343.903-.469,1.358-.376,1.357-.25,2.587.097,3.932.395,1.534.669,3.157.857,4.729.194,1.616.459,3.212.348,4.838-.065.954-.193,1.959-.15,2.912.018.409.049.816.051,1.226.003.434.096.792.16,1.215.064.426.033.794.323,1.135.215.254.511.395.723.642.546.638.575,1.286.17,2.028-.367.672-1.101,1.109-1.706,1.556-.381.282-.785.511-1.111.859-.382.408-.686.92-1.002,1.38-.213.31-.648.792-.28,1.116.275.242.876.121,1.18.093.65-.06,1.279-.165,1.934-.142.9.032,1.792.246,2.683.357.831.104,1.686.183,2.524.143.593-.028,1.155-.194,1.74-.283.528-.081,1.441.026,1.867-.389.282-.275.281-.914.31-1.278.054-.663.096-1.293.021-1.962-.088-.785-.518-1.424-.727-2.171-.136-.488-.178-1-.287-1.497-.325-1.485-.544-2.884-.487-4.414.019-.525.078-1.073.041-1.597-.04-.549-.137-1.081-.125-1.635.011-.506.013-.986-.035-1.493-.059-.625-.005-1.202.005-1.827.017-1.102-.363-2.145-.483-3.23-.061-.558-.065-1.118-.188-1.669-.175-.786-.322-1.539-.444-2.336-.098-.636-.234-1.266-.31-1.906-.074-.624-.058-1.243-.154-1.866-.081-.522-.034-.995.056-1.511.022-.125.027-.618.143-.696.187-.126.808.244.938.309.569.283,1.057.696,1.631.971,1.715.821,3.356,1.279,5.26,1.323,1.582.036,3.153-.05,4.733.028,1.521.075,3.025-.176,4.541-.175,1.255,0,2.534-.009,3.788-.089.467-.03.931-.11,1.4-.112.447-.002.89.098,1.337.038.393-.053.628-.082.652-.462.049-.751.03-1.503.186-2.249.102-.488.379-.963.372-1.471-.003-.192-.009-.39-.019-.581-.013-.278.05-.503.051-.77.002-.514-.128-.822-.238-.91Z"/>
</svg>