<?xml version="1.0" encoding="UTF-8"?>
<svg id="Layer_18" xmlns="http://www.w3.org/2000/svg" viewBox="0 0 200.224 179.541">
  <ellipse cx="102.149" cy="95.742" rx="67" ry="65" fill="none" stroke="#fff" stroke-miterlimit="10" stroke-width="10"/>
  <path d="M40.918,82.215c1.14-.205,2.173-.329,3.223-.785.437-.19.887-.353,1.33-.53.536-.215,1.085-.414,1.586-.704.44-.255.808-.598,1.229-.88,1.078-.722,2.174-1.364,3.215-2.144,1.331-.996,2.684-1.968,4.047-2.918,1.189-.829,2.34-1.699,3.503-2.563,1.142-.848,2.362-1.475,3.62-2.131,2.059-1.073,4.684-1.376,6.957-.959,1.345.246,2.607,1.133,3.734,1.869.712.464,1.392.973,2.119,1.413.756.457,1.552.841,2.278,1.347,1.088.758,2.143,1.434,3.331,2.032,1.442.726,3.109.715,4.665,1.074,1.444.334,2.887.478,4.356.654.984.118,1.851.058,2.829-.022,1.423-.117,2.785-.166,4.106-.791,1.671-.79,2.861-2.346,4.132-3.625.954-.961,1.657-1.913,2.353-3.069.688-1.142,1.294-2.326,2.004-3.452.674-1.069,1.241-2.191,1.96-3.233.869-1.26,1.593-2.674,2.61-3.824,1.167-1.319,2.809-2.286,4.527-2.629,2.379-.475,4.836-.481,7.185.157,1.197.325,2.351.438,3.489.971.449.21.892.452,1.359.623.484.178.996.252,1.479.43,1.985.73,3.672,1.892,5.486,2.94,1.295.748,2.401,1.706,3.639,2.525,1.126.744,2.24,1.469,3.343,2.25.793.561,1.541,1.052,2.197,1.777.376.416.719.853,1.072,1.288.483.596,1.118,1.123,1.512,1.785.752,1.264.936,3.077,1.026,4.517.058.938-.051,2.023-.259,2.945-.198.878-.663,1.6-.75,2.511-.056.579-.16,1.276-.363,1.823-.053.143-.246.471-.417.502-.302.054-.338-.173-.48-.375-.432-.614-.94-1.448-1.722-1.642.128-.526-1.04-.454-1.264-.252-.18.162-.107.815-.201,1.064-.284.757-.706,1.656-1.296,2.227-.256-.533.052-1.316-.1-1.909-.054-.212-.431-.977-.79-.799-.17.084-.122.575-.141.702-.092.628-.456,1.685-.974,2.092-.201-.103-.119-.432-.118-.625.003-.656-.052-1.285-.202-1.927-.089-.381-.213-.715-.648-.72-.158-.002-.307.108-.422.057-.041.503-.117.946-.322,1.416-.15.344-.746,1.828-1.285,1.631-.023-1.101.32-2.598-.931-3.113-.133-.055-.489-.247-.635-.153-.133.086-.106.301-.141.442-.239.961-1.184.886-1.842,1.482-.281.255-.343.562-.319.937.032.492.05.873-.011,1.384-.202,1.688.026,3.399.515,5.009.088.29.121.609.385.806.691.518,1.908-.187,2.539-.514-.259.322-.402.789-.568,1.175-.259.603-1.017,1.635-.903,2.337.36.05.733.096,1.096.102.234.004,1.074-.1,1.267.084.322.309-.9,1.397-1.118,1.698.133.307.529.496.828.579,1.068.298,2.338-.171,3.343.318-.044.198-.33.355-.48.488-.212.189-1.352.79-1.364,1.116-.017.458,2.64.175,2.99.278.114.448-.532.746-.808.951-.461.342-.921.918-1.464,1.106,1.101.045,2.198.268,3.263.525.549.132-2.018.121-2.451.979-.19.376,1.335.611.979.806-.456.25-.248.167-.332.3-.086.136-.166.457-.143.609.123.784-.842.776-1.451,1.245-1.704,1.315-5.882-1.729-6.815-2.493-7.817-6.404-7.816-7.237-8.719-8.344-1.214-1.489-1.865-1.724-3.96-1.105-1.897,1.356-3.964,3.537-5.908,4.822-.517.342-.994.747-1.499,1.107-.2.142-.417.289-.545.495l.186.029s-.038.187-.143.119c-.578.121-1.261.181-1.778.453-.104.055-.215.103-.323.156-.217.104-.438.2-.647.321-.345.2-.689.4-.983.671-.252.232-.489.385-.696.671-.257.354-.489.637-.682,1.025-.181.363-.3.705-.566,1.027-.254.308-.594.663-.734,1.044-.144.393.026.759.212,1.103.18.333.453.613.713.885.397.415.755.817,1.098,1.278.339.456.778.764,1.163,1.173.425.452.774.902,1.293,1.255,1.28.871,2.607,1.694,3.834,2.638,1.261.97,2.256,2.103,3.171,3.401.83,1.179,1.346,2.554,1.668,3.956.608,2.644,1.392,5.553.237,8.155-.595,1.34-1.255,2.661-2.332,3.679-1.012.957-2.315,1.581-3.52,2.251-.996.554-2.365,1.325-3.575.994-.03-.186.112-.313.214-.431.369-.427.948-.68,1.384-1.038,1.04-.853,2.007-1.821,2.793-2.915.865-1.204,1.468-2.514,1.927-3.924.203-.622.412-1.258.342-1.912-.008-.075-.035-.152-.022-.24-.099.043-.114.112-.187.205-.192.245-.414.461-.644.669-1.19,1.077-2.459,2.249-4.003,2.766-.428.143-.846.307-1.265.475-.175.07-.638.309-.873.241-.139-.04-.198-.193-.357-.163.414-.036.824-.609,1.09-.882,1.315-1.351,2.525-3.127,3.101-4.939.209-.658.351-1.684.044-2.315-.236-.486-.676-.95-1.095-1.278-.404-.316-.703-.711-1.074-1.057-.255-.238-.565-.407-.839-.621-.303-.236-.569-.509-.86-.757-.468-.399-1.029-.666-1.518-1.035-.32-.241-.589-.537-.953-.716-.254-.125-.549-.183-.809-.284-.663-.257-1.185-.75-1.838-1.035-.772-.338-1.494-.699-2.197-1.163-.561-.371-1.163-.68-1.739-1.029-.67-.406-1.408-.591-2.137-.857-1.629-.594-3.269-1.068-4.992-1.302-.496-.068-.906-.089-1.38.082-.394.143-.794.338-1.173.518-.977.465-1.82,1.096-2.567,1.877-.627.655-1.179,1.516-1.624,2.304-.314.557-.6,1.097-.973,1.619-.36.504-.687,1.024-.919,1.598-.118.292-.384.701-.269,1.022.045.126.145.184.223.272.177.198.336.417.52.612.298.315.617.662.946.941.265.224.543.358.851.504.568.27,1.141.567,1.721.81,1.352.568,2.86.577,4.271.933.527.133,1.046.291,1.58.395.544.093,1.092.14,1.643.141.351-.025.697.003,1.037.084.224.113.661.687.424.983-.081.101-.434.14-.521.164-.55.155-1.111.353-1.644.555-.621.236-1.197.558-1.809.809-.242.099-.832.19-.981.389-.073.098-.094.2-.092.331.003.265.067.256.337.417.356.212.69.456,1.024.702.654.505,1.292,1.03,1.913,1.575.591.495,1.162,1.013,1.712,1.553.64.709,1.365,1.612,1.638,2.544-.207-.104-.411-.336-.585-.471-.303-.236-.619-.456-.938-.669-1.371-.913-2.855-1.703-4.427-2.2-.975-.308-1.925-.632-2.942-.773-.317-.044-.813,0-1.099-.188.136.133.166.233.163.418-.007.526-.228.996-.174,1.529.211,2.063,1.603,3.999,3.049,5.398,1.214,1.175,2.868,1.721,4.301,2.573.537.319,1.065.646,1.63.915.166.079.61.204.79.361-.201.001-.402-.045-.602-.063-.334-.03-.567.128-.891.182-.515.087-1.074-.055-1.57-.181-1.04-.265-2.016-.712-2.881-1.345-.882-.646-1.633-1.451-2.535-2.07-.831-.57-1.743-.992-2.485-1.689-.56-.527-1.101-1.136-1.546-1.764-.494-.697-.805-1.473-1.103-2.268-.293-.783-.609-1.562-.852-2.362-.228-.751-.391-1.516-.685-2.246-.539-1.34-1.128-2.585-2.35-3.437-.535-.373-1.279-.559-1.89-.778-.703-.251-1.453-.223-2.172-.091-1.08.198-2.419.446-3.154,1.335-.861,1.039-.879,2.135-.478,3.385.23.716.686,1.488,1.085,2.125.232.37.425.715.601,1.115.194.439.455.771.733,1.158,1.119,1.561,2.404,3.061,3.968,4.195.472.342.997.59,1.501.881.419.242.734.592,1.133.854.42.276.92.386,1.39.557.486.176.811.475,1.241.737.55.335,1.22.532,1.802.821.192.095.342.151.373.376.089.645-.37,1.177-.953,1.378-.433.149-.847.082-1.287.033-1.314-.147-2.598-.31-3.925-.253-2.174.093-4.317.536-6.446.964-.429.086-.751.019-1.167.027-.609.012-1.292.053-1.892-.154-.39-.134-.496-.315-.597-.71-.301-1.167-.287-2.397-.559-3.576-.157-.68-.376-1.344-.47-2.037-.089-.657-.11-1.324-.14-1.986-.05-1.13-.13-2.192-.422-3.29-.231-.868-.336-1.751-.593-2.61-.141-.472-.199-.957-.299-1.438-.114-.546-.286-1.076-.412-1.618-.184-.792-.117-1.624-.228-2.43-.08-.579-.067-1.16-.12-1.74-.071-.786.133-1.51.342-2.261.173-.623.324-1.263.521-1.878.131-.41.231-.845.431-1.229.259-.499.555-.94.782-1.463.183-.423.203-.846.255-1.301.07-.612.098-1.138-.036-1.747-.322-1.47-1.633-2.979-3.078-3.419-.659-.201-1.385-.403-1.922.141-.203.206-.265.405-.34.677-.132.482-.344.919-.532,1.38-.44,1.085-.956,2.139-1.384,3.227-.199.505-.435.998-.629,1.504s-.219,1.039-.325,1.565c-.089.439-.198.847-.193,1.299.004.417.058.845.107,1.259.056.481.179.91.347,1.364.207.56.276,1.154.441,1.726.144.497.353.977.442,1.49.076.435.04.875.087,1.312.088.815.399,1.606.571,2.406.162.753.517,1.428.707,2.171.105.41.198.806.375,1.193.202.443.448.844.586,1.317.279.956.452,1.932.693,2.897.148.593.334,1.172.404,1.783.083.716.073,1.4.304,2.092.184.553.254,1.091.295,1.671.035.486.122.969.109,1.457-.023.858-.275,1.485-1.005,1.968-.662.438-1.377-.218-1.841-.671-1.06-1.035-2.211-2.069-3.488-2.832-1.426-.852-2.641-1.822-3.769-3.049-.56-.61-1.082-1.248-1.525-1.948-.423-.67-.782-1.377-1.208-2.045-.429-.672-.763-1.376-1.113-2.091-.238-.487-.262-.986-.312-1.519s-.135-1.084-.306-1.593c-.238-.706-.286-1.372-.211-2.118.248-2.459.992-4.907.817-7.389-.115-1.635-.204-3.276-.044-4.91.068-.698.218-1.386.281-2.083.061-.677.009-1.361.057-2.041.038-.538.097-1.08.093-1.62-.003-.423-.094-.841-.083-1.264.022-.839.208-1.674.251-2.514.036-.707.054-1.356-.052-2.06-.084-.558-.393-1.196-.674-1.687-.285-.498-.817-.955-1.348-1.172-1.03-.421-2.249-.59-3.347-.711-1.391-.154-2.767-.212-4.163-.273-.443-.019-.884-.074-1.327-.091-.181-.007-.38.013-.554-.043-.019-.226.2-.474.247-.696.08-.371-.024-.645-.114-1.004-.164-.655-.128-1.346-.114-2.017.025-1.245.241-2.482.312-3.725.059-1.043.241-2.071.108-3.112-.148-1.159.272-2.323.165-3.496-.032-.352-.006-.534.068-.865.058-.262-.114-.339.166-.458.45-.192,1.194.142,1.449-.416-.41-.169-.823.264-1.234.118.237-.097.475-.155.05-.136Z" fill="#fff" stroke="#fff" stroke-dasharray="0 0 0 0 0 0" stroke-miterlimit="10"/>
</svg>