<?xml version="1.0" encoding="UTF-8"?>
<svg id="Layer_14" xmlns="http://www.w3.org/2000/svg" viewBox="0 0 200.224 179.541">
  <defs>
    <style>
      .cls-1 {
        fill: #fff;
        stroke-dasharray: 0 0 0 0 0 0;
      }

      .cls-1, .cls-2 {
        stroke: #fff;
        stroke-miterlimit: 10;
      }

      .cls-2 {
        fill: none;
        stroke-width: 10px;
      }
    </style>
  </defs>
  <ellipse class="cls-2" cx="103.365" cy="97.117" rx="67" ry="65"/>
  <path class="cls-1" d="M161.347,74.574c-2.737.467-5.499.727-8.256,1.04-2.468.28-4.969.462-7.45.563-1.15.047-2.391-.034-3.533-.203-.846-.125-1.664-.206-2.478-.482-1.075-.364-2.14-.785-3.185-1.229-1.05-.446-1.801-1.178-2.72-1.828-.948-.67-2.02-1.167-2.993-1.808-1.799-1.185-3.82-1.976-5.643-3.116-.707-.442-1.462-.882-2.22-1.231-1.23-.565-2.572-.622-3.877-.896-.919-.193-1.819-.333-2.749-.469-.857-.126-1.67-.205-2.531-.042-.801.152-1.543.484-2.306.757-.729.261-1.534.631-2.214,1.009-.67.372-1.292.815-1.972,1.178-.552.295-1.073.677-1.57,1.053-.967.732-1.858,1.55-2.841,2.26-.995.719-2.19.746-3.364.91-1.137.159-2.29.127-3.435.086-1.562-.056-3.12-.12-4.682-.171-1.477-.048-2.951-.221-4.429-.225s-2.978-.123-4.457-.213c-.688-.042-1.375.034-2.063,0-.523-.026-1.038-.101-1.563-.107-1.298-.017-2.568-.188-3.861-.264-2.041-.119-4.086-.081-6.128-.162-1.672-.066-3.531.254-5.128.721-.946.276-1.937.482-2.864.815-1.107.397-2.177,1.075-3.023,1.888-1.109,1.066-1.786,2.613-2.072,4.109-.205,1.072-.04,2.02.136,3.071.111.659.426,1.076.712,1.662.306.63.674,1.222.968,1.851.229.491.557.816.859,1.249.286.411.53.877.86,1.255.666.763,1.57,1.252,2.327,1.913.344.301.566.676.87,1.008.311.339.54.556.681,1.011.178.577.378,1.154.522,1.734.085.346.116.715.207,1.061.247.941.387,1.918.519,2.903.132.991.308,1.979.57,2.944.229.842.616,1.661.802,2.51.211.962.393,1.925.758,2.846.404,1.022,1.153,1.86,1.766,2.754.62.905,1.44,1.764,2.433,2.261.302.151.632.223.942.353.247.104.466.269.723.353.609.198,1.338.346,1.98.319.668-.029,1.377-.031,1.961-.403.571-.364,1.081-.929,1.305-1.57.231-.661.46-1.373.553-2.067.061-.458.044-.921.141-1.374.127-.593.347-1.178.519-1.759.22-.742.29-1.542.577-2.259.418-1.046.756-2.166,1.333-3.138.92-1.552,2.017-2.974,3.496-4.028.684-.488,1.484-1.011,2.277-1.293.957-.341,1.946-.555,2.95-.687.795-.105,1.663-.272,2.458-.087.666.155,1.239.452,1.848.749.416.202.756.405,1.11.684.203.16.477.237.726.313-.086-.049-.155-.039-.156.144-1.235,1.331-2.423,2.737-3.733,3.997-.424.407-.89.767-1.298,1.191-.323.336-.564.732-.891,1.061-.368.371-.74.769-1.126,1.121-.54.493-1.197.838-1.74,1.311-1.15,1.003-1.877,2.453-2.749,3.713-.959,1.386-2.607,2.023-3.675,3.567-.366.528-1.35.84-1.594,1.424-.191.457-.493.844-.655,1.318-.084.244-.159.49-.223.739-.252.987,1.855-1.112,1.983-.097.057.449-2.002,4.091-1.624,3.769,4.56-3.891,3.244-.012,4.277-.49,1.004-.465.819-1.22,1.532-2.041,1.007-1.16,1.912-2.39,2.959-3.517.938-1.01,1.793-2.115,2.678-3.173.992-1.187,2.166-2.119,3.357-3.097.902-.74,1.872-1.445,2.838-2.1.622-.422,1.294-.763,1.915-1.188,1.01-.691,1.884-1.056,3.131-.907.466.055.828.104,1.259.325.688.352,1.308.837,1.978,1.222.803.462,1.611.968,2.368,1.503.625.442,1.042,1.16,1.609,1.678.427.391.893.651,1.241,1.129.442.607.944,1.197,1.511,1.687.63.545,1.227,1.161,1.751,1.808.285.351.596.77.805,1.16.144.269.035.252-.168.445-.36.343-.568.735-.989,1.024-.377.259-.722.56-1.1.818-.388.265-.811.4-1.223.618-.769.408-1.286,1.09-1.93,1.652-.555.485-1.682,1.438-1.335,2.317.984.021,1.964.004,2.948-.124-.231,0-.404.143-.593.255-.48.285-.844.679-1.285,1.02-.573.442-1.028,1.035-1.388,1.664-.223.388-.447,1.09-.221,1.514.187.351.575.129.929.117.522-.018.951.071,1.474-.102.411-.135.552-.407.832-.697.142-.148.329-.253.465-.395-.003.426-.18.846-.153,1.306.048.814.472,1.688,1.137,2.178.427.315.771-.031,1.12-.34.58-.512,1.04-1.143,1.618-1.653.625-.553,1.034-1.212,1.49-1.908.526-.803,1.132-1.521,1.597-2.362.19-.344.371-.693.556-1.036.198-.367.256-.799.281-1.222.049-.834-.193-1.453.43-2.108.108-.113.44-.498.619-.476.474.057.574,1.084.65,1.403.12.505.271,1.012.354,1.525.086.53-.02,1.025-.153,1.537-.239.921-.474,1.846-.562,2.794-.057.611-.288,1.184-.218,1.803.088.775-.185,1.567-.272,2.342-.068.6-.12,1.272.045,1.866.118.427.326.558.721.502.523-.074.866-.184,1.214-.614.398-.493.548-1.21.664-1.818.154.615.163,1.36.474,1.928.468.856,1.043,1.651,1.667,2.397.267.32.553.191.898.01.379-.198.974-.514,1.129-.939.091-.249-.004-.646.008-.9.013-.268.083-.533.082-.802-.002-.468-.189-.936-.169-1.403.398.183.598.58,1.056.725.402.128,1.277.221,1.622-.127.18-.182.232-.53.269-.76.07-.426.156-.872.107-1.304-.086-.765-.234-1.605-.507-2.326-.172-.456-.508-.808-.664-1.277-.203-.611-.17-1.284-.23-1.914-.049-.509-.25-.891-.394-1.37-.182-.607-.184-1.249-.28-1.872-.069-.449-.191-.821-.484-1.168-.333-.394-.66-.708-.873-1.192-.277-.632-.572-1.145-.948-1.721-.72-1.105-1.552-2.315-1.729-3.647-.188-1.414-.168-3.139.696-4.335.491-.68,1.135-1.188,1.739-1.757.459-.433.935-.853,1.476-1.182.666-.405,1.469-.824,2.248-.938.299-.043.288.023.266.364.692,1.36,1.452,2.678,2.282,3.956.301.506.629.993.984,1.463.389.615.733,1.26,1.079,1.899.693,1.281,1.343,2.571,1.961,3.889.643,1.372,1.048,2.792,1.5,4.233.413,1.317.752,2.727.927,4.098.121.946.232,1.932.239,2.887.004.55-.177,1.075-.356,1.589-.436,1.25-.891,2.349-1.699,3.403-.452.59-.871,1.204-1.349,1.775-.428.511-.864.948-1.333,1.414-.805.8-1.638,2.067-1.303,3.245.1.353.354.728.614.984.34.335.751.27,1.207.246.615-.032,1.226-.238,1.842-.259.232.657.231,1.207.993,1.523.334.139.705.189,1.056.268.297.067.492.118.738-.098.583-.513.779-1.251,1.049-1.932.216-.546.386-1.312,1.007-.708,1.184,1.151,2.398,2.672,4.128,2.953,1.326.215,2.074-1.147,1.986-2.32-.04-.531-.221-1.05-.373-1.557-.222-.744-.351-1.501-.535-2.254-.381-1.558-.782-3.088-1.079-4.665-.435-2.316-.407-4.719-.566-7.065-.138-2.03-.314-4.062-.481-6.09-.217-2.626-.285-5.24-.357-7.873-.078-2.857-.103-5.715-.111-8.573-.005-2.074-.198-4.16-.133-6.231.03-.963-.158-1.965-.052-2.92.035-.314.085-.54.031-.806,2.067-1.357,3.934-2.891,6.191-3.908,1.405-.633,2.815-1.443,3.898-2.386,1.41-1.009,2.874-2.162,4.408-3.025.518-.291,1.06-.524,1.562-.849.593-.384,1.234-.753,1.802-1.159.21-.15.43-.264.668-.377.204-.097.348-.248.562-.323-.052.023-.104.047-.002-.123Z"/>
</svg>