<?xml version="1.0" encoding="UTF-8"?>
<svg id="Layer_16" xmlns="http://www.w3.org/2000/svg" viewBox="0 0 200.224 179.541">
  <defs>
    <style>
      .cls-1 {
        fill: #fff;
        stroke-dasharray: 0 0 0 0 0 0;
      }

      .cls-1, .cls-2 {
        stroke: #fff;
        stroke-miterlimit: 10;
      }

      .cls-2 {
        fill: none;
        stroke-width: 10px;
      }
    </style>
  </defs>
  <ellipse class="cls-2" cx="100.112" cy="91.132" rx="67" ry="65"/>
  <path class="cls-1" d="M142.18,114.297c.774,1.042,1.555,2.016,1.893,3.282.176.66.009,1.524-.238,2.145-.202.508-.548,1.295-1.021,1.598-.916.584-1.941.494-2.952.325-.603-.101-1.221-.171-1.817-.311-.708-.167-1.281-.502-1.895-.872-1.147-.692-2.238-1.412-3.318-2.202-1.366-.999-2.733-2.07-3.883-3.319-1.272-1.382-2.444-2.886-3.647-4.329-2.688-3.223-4.757-6.939-7.694-9.965-1.642-1.692-3.319-3.37-5.008-5.016-.811-.79-1.647-1.615-2.552-2.302-.783-.594-1.637-1.07-2.474-1.581-1.175-.718-2.312-1.497-3.469-2.239-.979-.628-2.013-1.161-3.017-1.747-2.472-1.443-5.126-2.552-7.681-3.833-1.43-.717-2.945-1.369-4.455-1.893-1.753-.609-3.588-1.196-5.397-1.611-.83-.191-1.657-.389-2.495-.542-.698-.128-1.409-.331-2.121-.357-.847-.031-1.642-.221-2.475-.413-.949-.22-1.909-.474-2.826-.798-.419-.148-.788-.372-1.19-.555-.576-.263-1.15-.47-1.681-.829-.776-.526-1.5-1.277-2.026-2.049-.361-.529-.739-1.107-1.036-1.675-.456-.874-.732-1.926-1.05-2.857-.305-.896-.434-1.771-.509-2.711-.083-1.037-.378-2.053-.334-3.099.032-.769.22-1.504.32-2.263.128-.97.419-1.762.813-2.66.403-.92.882-1.899,1.507-2.691.535-.678,1.182-1.247,1.813-1.831.62-.573,1.162-1.227,1.838-1.735.738-.555,1.543-1.129,2.356-1.568,1.662-.898,3.455-1.604,5.188-2.355,1.692-.734,3.348-1.64,5.082-2.269,1.393-.506,2.765-1.03,4.243-1.193,1.082-.12,2.011-.261,3.089-.006.613.145,1.327.341,1.901.597.711.316,1.353.784,2.163.814.742.027,1.455-.126,1.729-.922.118-.341-.115-.7-.04-1.064.076-.369.225-.412.565-.529.471-.162.94-.331,1.412-.493.442-.151.947-.351,1.289-.669.389-.362.758-1.042.448-1.531-.633-.996-1.894-1.325-2.725-2.073-.454-.409-.781-.93-1.121-1.438-.434-.65-1.078-1.149-1.774-1.517-.884-.466-1.715-.527-2.686-.368-.515.084-.988.279-1.479.445-.44.149-.758.388-1.152.611-1.192.675-2.635,1.008-3.922,1.457-1.334.465-2.669.931-4.003,1.396-.936.327-1.873.653-2.809.98-.705.246-1.467.424-2.131.767-.857.443-1.65,1.009-2.513,1.45-.767.392-1.529.79-2.322,1.126-1.314.557-2.674,1.013-3.921,1.715-.447.252-.946.465-1.352.782-.503.393-.923.833-1.468,1.186-2.051,1.331-3.781,3.011-5.346,4.872-1.394,1.658-2.733,3.411-3.871,5.258-.309.502-.671.945-.935,1.473-.194.388-.353.791-.548,1.177-.241.476-.532.937-.752,1.42-.247.543-.386,1.174-.588,1.741-.135.378-.22.794-.248,1.195-.038.528-.112.96-.226,1.482s-.181,1.063-.115,1.593c.08.64.026,1.264.085,1.903.124,1.343.211,2.682.42,4.02.225,1.439.668,2.84,1.036,4.246.212.812.49,1.596.759,2.39.298.879.75,1.615,1.188,2.433.457.855.869,1.728,1.305,2.592.395.782.977,1.436,1.38,2.209.325.624.563,1.209.982,1.788.389.536.735,1.091,1.108,1.636.804,1.175,1.586,2.398,2.051,3.758.207.605.274,1.112-.127,1.646-.286.38-.364.533-.448,1.011-.078.442-.265.86-.363,1.299-.115.519-.179,1.053-.322,1.565-.275.986-.518,1.967-.606,2.994-.102,1.207.301,2.419.176,3.632-.067.652-.093,1.126.045,1.759.098.452.125.902.262,1.346.4,1.293.531,2.56.712,3.891.197,1.457.033,2.93-.141,4.386s-.467,2.845-.8,4.267c-.262,1.12-.222,2.294-.448,3.419-.106.528-.015,1.051-.02,1.586-.004.486-.008.948-.039,1.433-.035.532.041.998-.131,1.519-.24.731-.216,1.324-.248,2.082-.04.924.369,1.732.097,2.657-.149.506-.464.924-.622,1.418-.121.379-.207.725-.267,1.12-.082.535-.272,1.091-.249,1.637.009.208.492,1.252-.012,1.375,1.116.433,2.228.932,3.379,1.26.365.104.673.306,1.026.439.277.105.756.162.789.528.091-.241-.039-.684,0-.973.038-.282.125-.555.153-.837.035-.352-.096-.691-.067-1.039.029-.345.241-.71.339-1.042.143-.484.272-.978.401-1.466.224-.841.367-1.683.806-2.451.676-1.18,1.33-2.344,1.869-3.596.175-.406.211-.819.286-1.247.098-.566.258-1.117.343-1.686.171-1.146.394-2.282.579-3.427.369-2.291.43-4.645,1.584-6.717.344-.617,1.064-1.241,1.679-1.6.592-.345,1.534-.381,2.208-.343,1.345.076,2.504.886,3.553,1.644.385.278.771.466,1.191.69.238.127.529.23.515.537-.584.241-1.2.569-1.738.896-.448.273-.791.605-1.117,1.013-.397.498-.845.951-1.238,1.451-.582.741-.811,1.591-1.219,2.418-.231.468-.668.856-.711,1.388-.057.715,0,1.43.005,2.146.004.675-.086,1.333-.013,2.001.06.555-.111,1.038-.221,1.576-.048.235-.038.431-.217.584-.111.094-.449.145-.585.193-.33.116-.729.212-.934.529-.16.246-.089.549-.085.826.007.377-.035,1.151.332,1.386.254.163.721-.025.98-.076.414-.081.798-.187,1.223-.216.679-.046,1.308.248,1.977.191.465-.039.873-.205,1.318-.308.397-.091.803-.15,1.189-.288.156-.056.356-.169.512-.112-.155-.72-.244-1.417-.247-2.163-.003-.707-.043-1.433.047-2.136.077-.598.22-1.05.138-1.651-.055-.399-.086-1.074.225-1.401.16-.168.507-.215.71-.291.623-.232,1.23-.497,1.86-.72.821-.29,1.515-.87,2.243-1.34.667-.43,1.303-.77,1.895-1.303.304-.273.659-.465.97-.725.241-.202.398-.485.626-.694.358-.328,1.244-.819,1.586-.282.457.718.837,1.46,1.424,2.102.951,1.042,2.166,1.827,3.265,2.698,1.197.948,2.442,1.839,3.659,2.761,1.041.788,1.961,1.643,2.791,2.658.961,1.177,1.368,2.986,1.574,4.459.2,1.427-.769,2.688-1.377,3.908-.272.545-.648,1.004-.892,1.568-.208.481-.437,1.105-.932,1.362.464.141,1.101.303,1.617.353.552.053,1.084.071,1.636.16.241.039.421.053.648.051.645-.006,1.433-.278,2.004-.578.624-.328,1.128-.941,1.672-1.381.453-.367.921-.891,1.197-1.41.211-.397.349-.8.603-1.18.249-.372.416-.596.378-1.072-.101-1.27-1.061-2.311-1.755-3.315-.309-.447-.605-.791-.99-1.174-.434-.432-.756-.886-1.135-1.359-.849-1.06-1.392-2.313-2.057-3.489-.658-1.164-.879-2.247-.664-3.566.111-.683.473-1.048,1.058-1.393.53-.313,1.361-.762,1.978-.517.643.254.663.963.695,1.548.041.739.264,1.415.427,2.127.133.578.094,1.195.115,1.782.029.807.202,1.611.293,2.414.089.782.067,1.616.182,2.383.05.332.109.817.255,1.123.336.704,1.024,1.302,1.288,2.059.207.593.304,1.299.008,1.853-.235.441-.46.981-.743,1.39-.208.299-.534.489-.703.826-.156.311-.169.695-.278,1.029-.198.606-.398,1.227-.34,1.872,1.238-.296,2.444-.53,3.739-.492.71.021,1.36.059,2.067-.029.592-.074,1.168.099,1.764.036.259-.027,1.048-.156,1.16-.443.034-.086-.014-.161-.014-.244-.002-.277.019-.553-.009-.833-.137-1.353-.431-2.668-.616-4.012-.077-.563-.059-1.135-.152-1.695-.087-.523-.256-1.026-.322-1.553-.098-.779-.06-1.619.019-2.397.088-.859.258-1.734.405-2.585.149-.86.139-1.712.202-2.579.092-1.273.204-2.612.527-3.849.138-.529.269-1.055.407-1.578.072-.273.061-.555.173-.894,1.882-.062,3.639-.239,5.482.104.625.116,1.227.286,1.833.475.718.224,1.452.397,2.162.642,1.164.402,2.301.873,3.47,1.263,1.342.448,2.621.964,3.898,1.569.845.4,1.78.715,2.686.951.858.224,1.798.432,2.691.409s1.789-.406,2.54-.856c.814-.488,1.425-1.143,2.116-1.784.626-.581,1.109-1.305,1.511-2.052.362-.672.75-1.307,1.043-2.014.146-.353.196-.727.307-1.091.094-.311.195-.599.242-.92.067-.452.068-.906.064-1.36-.003-.275-.059-.475-.146-.733-.078-.231-.112-.499-.229-.713-.125-.226-.329-.306-.499-.486-.153-.161-.287-.328-.451-.481-.231-.216-.57-.339-.844-.496-.37-.211-.768-.381-1.162-.55-.291-.125-.607-.307-.936-.297-.126.004-.354.077-.416.239-.069.177.22.435.354.559.084.079.368.231-.216-.473Z"/>
</svg>