<?xml version="1.0" encoding="UTF-8"?>
<svg id="Layer_15" xmlns="http://www.w3.org/2000/svg" viewBox="0 0 200.224 179.541">
  <defs>
    <style>
      .cls-1 {
        fill: #fff;
        stroke-dasharray: 0 0 0 0 0 0;
      }

      .cls-1, .cls-2 {
        stroke: #fff;
        stroke-miterlimit: 10;
      }

      .cls-2 {
        fill: none;
        stroke-width: 10px;
      }
    </style>
  </defs>
  <ellipse class="cls-2" cx="100.112" cy="91.132" rx="67" ry="65"/>
  <path class="cls-1" d="M160.235,79.356c-1.755.211-3.52.317-5.275.532-2.581.316-5.169.399-7.743.787-2.288.345-4.596.242-6.899.307-1.308.037-2.597.1-3.907.04-.757-.035-1.506-.155-2.265-.181-1.007-.035-2.013.002-3.02-.024-1.487-.038-2.971-.007-4.457-.089-1.655-.091-3.321-.183-4.978-.219-1.718-.038-3.429.057-5.146-.013-1.793-.072-3.577-.2-5.362-.387-1.422-.149-2.854-.208-4.278-.346-1.37-.133-2.693-.497-4.044-.729-1.232-.212-2.449-.469-3.677-.702-1.357-.257-2.697-.332-4.07-.42-2.852-.184-5.702-.175-8.55-.423-1.021-.089-2.013-.267-3.038-.34-1.059-.076-2.152-.234-3.181-.507-.347-.092-.797-.156-1.119-.315-.259-.128-.428-.359-.637-.558-.649-.617-.918-1.272-.941-2.166-.024-.907.003-1.841.061-2.747.067-1.044.537-2.04.693-3.077.067-.445.009-.891.019-1.338.012-.519.055-1.04.085-1.558.063-1.092.211-2.146.141-3.24-.065-1.016-.158-2.026-.217-3.042-.051-.889-.247-1.73-.403-2.602-.221-1.236-.903-2.698-2.053-3.313-1.297-.694-2.655-1.045-4.134-.936-1.788.131-3.601.492-5.214,1.314-.897.457-1.751,1.034-2.59,1.587-.653.43-1.26.768-1.814,1.327-.593.599-1.228,1.168-1.849,1.738-.635.583-1.219,1.213-1.811,1.842-.21.223-2.358,2.417-1.489,2.768-.008-.059-.031-.15-.284-.135,1.312.153,2.494.304,3.782.285.428-.006.864.001,1.287.067.653.101,1.345.107,1.981.267.65.163,1.292.162,1.957.221.574.051,1.13.219,1.702.264.439.034.842.013,1.268.141.622.187.855.932,1.17,1.448.575.943.739,2.011.914,3.088.23,1.411.225,2.859.238,4.285.005.546-.02,1.094-.061,1.639-.047.625.067,1.241.161,1.859.078.512.257,1,.35,1.509.108.592.213,1.124.476,1.675.203.426.28.804.378,1.265.095.447.294.845.434,1.277.283.877.551,1.68,1.081,2.447.282.409.477.836.737,1.254.204.327.449.627.646.96.383.648.79,1.262,1.228,1.872.257.36.504.761.714,1.151.244.453.483.973.784,1.384.438.597.926,1.147.986,1.926.017.228-.047.494-.134.71-.122.305-.388.579-.576.852-.328.479-.648.968-.96,1.458-.43.674-.95,1.502-1.644,1.916-.415.247-.63.67-.994.973-.55.458-1.139.764-1.488,1.413-.46.856-.574,1.817-.478,2.757.084.826.116,1.621.354,2.422.11.371.216.746.314,1.116.068.255.106.612.376.736.514.236,1.012-.875,1.221-1.223.173-.289.342-.459.433-.799.168-.631.235-1.27.387-1.902.155-.648.496-1.166.894-1.687.476-.623.945-1.307,1.465-1.894.883-.997,1.793-2.003,2.375-3.213.323-.673.48-1.428.83-2.087.098-.185.196-.263.27-.441.064-.154.069-.329.144-.479.077.104.108.354.174.504.129.294.284.583.546.777.227.169.601.213.796.417.15.157.072.146.094.327.096.785-.533,1.354-.943,1.958-.292.431-.655.814-.896,1.275-.171.326-.325.671-.477,1.006-.165.363-.273.705-.491,1.047-.131.204-.181.358-.26.578-.198.556-.248.917-.146,1.51.063.367.091.742.17,1.105.089.407.269.66.151,1.074.207.085,1.171.007,1.349-.166.095-.093.136-.465.169-.584.184-.674.355-1.352.549-2.023.167-.577.565-1.023.766-1.575.145-.398.255-.752.455-1.128.199-.374.407-.739.599-1.116.357-.703.649-1.43,1.133-2.062.086-.113.261-.357.398-.422.269-.126.514.229.7.39.921.8,1.982,1,3.098,1.384.895.308,1.622.924,2.474,1.326.671.316,1.335.65,1.989,1.002.31.167.595.353.934.457.331.102.67.164.997.283.663.24,1.512.648,2.221.379-.037-.053-.089-.083-.216-.022.058,1.346.196,2.691.057,4.037-.06.58-.158,1.141-.17,1.727-.015.734-.033,1.465-.031,2.199.002.579-.049,1.145-.077,1.723-.026.555-.012,1.113-.047,1.667-.072,1.133-.103,2.271-.133,3.406-.026.996.038,1.997-.01,2.991-.048,1.005-.141,2.014-.222,3.018-.071.876-.301,1.722-.395,2.593-.081.756-.328,1.533-.634,2.231-.13.296-.231.608-.365.901-.138.302-.379.537-.583.793-.521.653-1.065,1.233-1.727,1.747-.301.233-.525.548-.829.773-.278.206-.598.337-.858.571-.415.374-.815.673-1.31.934-.307.162-.57.366-.896.494-.462.181-.885.399-1.317.641-.269.15-.601.215-.892.331-.524.209-1.048.416-1.57.628-.453.184-.935.336-1.403.477-.368.111-.706.334-1.02.547-.178.121-.468.149-.583.339-.158.261-.055.576.059.826.13.285.41.477.645.682.335.292.715.491,1.162.538.474.05.913.111,1.392.06.511-.054,1.052-.174,1.564-.168.946.011,1.799-.293,2.672-.632.518-.202.932-.547,1.383-.863.264-.185.559-.275.795-.503.254-.246.559-.433.806-.682.218-.22.355-.505.604-.698.258-.2.547-.358.805-.562.261-.206.448-.471.679-.708.284-.291.564-.555.814-.877.302-.39.627-.701.981-1.038.469-.447.875-1.035,1.233-1.573,1.233-1.852,1.865-4.082,2.466-6.208.781-2.76,1.448-5.558,1.699-8.42.063-.723.161-1.437.277-2.154.129-.8.161-1.61.266-2.413.1-.77.218-1.488.421-2.237.187-.691.256-1.423.49-2.099.179-.518.406-1.017.587-1.534.19-.542.438-1.079.774-1.548s.779-.85,1.116-1.325c.227-.32.454-.569.979-.852.733.357,1.47.678,2.138,1.145.15.105.259.247.403.358.206.159.432.298.643.45,1.274.915,2.611,1.626,4.105,2.123,1.009.336,2.056.51,3.064.841.44.144.888.255,1.335.372.594.154,1.17.366,1.764.521,2.249.588,4.376,1.526,6.41,2.641,2.294,1.258,4.283,2.963,6.261,4.661.924.794,1.811,1.619,2.715,2.433.821.74,1.692,1.445,2.649,1.999.766.444,1.682.587,2.542.759.41.082.828.102,1.241.16.44.062.84.148,1.286.136.82-.021,1.686.058,2.499-.065.547-.083,1.082-.178,1.622-.305.332-.078.653-.131.994-.144.254-.009.463-.003.698-.109.249-.112.251-.387.253-.651.002-.234.06-.461.059-.694,0-.293-.16-.533-.179-.816-.009-.136.033-.267.024-.404-.007-.107-.058-.172.027-.263-.122-.183-.658-.186-.821-.215-.742-.135-1.494-.248-2.249-.279-1.572-.064-3.149.125-4.68-.306-1.168-.329-2.371-.542-3.489-1.029-1.604-.699-3.023-1.824-4.356-2.943-.388-.326-.77-.657-1.172-.965-.515-.394-1.074-.724-1.595-1.11-.992-.736-1.928-1.561-2.873-2.355-.978-.821-1.982-1.625-2.987-2.413-.936-.733-1.849-1.495-2.807-2.199-1.282-.942-2.669-1.736-3.961-2.663-.344-.247-.689-.46-1.065-.655-.18-.094-.351-.243-.578-.641l2.345-2.013.976-.787c.294-.174.62-.302.925-.455.589-.295,1.148-.644,1.74-.932,1.247-.605,2.441-1.338,3.696-1.919,1.422-.658,2.749-1.475,4.143-2.191.642-.33,1.29-.586,1.957-.858.964-.393,1.874-.868,2.859-1.215.834-.294,1.631-.67,2.449-1.003.794-.323,1.64-.484,2.454-.745,1.432-.459,2.908-.686,4.367-1.024s2.953-.561,4.445-.729c1.554-.175,3.089-.549,4.644-.692,2.667-.245,5.318-.817,7.965-1.074.143-.014.434-.003.53-.135.172-.236-.24-1.106-.288-1.371-.057-.314-.115-.66-.133-.978-.017-.304.082-.617.06-.916-.021-.284-.113-.337-.421-.217-.669.262-1.251.356-1.953.424-.241.023-.464.08-.7.083-.242.003-.353-.086.483.144Z"/>
</svg>